<svg width="1284" height="674" viewBox="0 0 1284 674" fill="none" xmlns="http://www.w3.org/2000/svg">
<path fill-rule="evenodd" clip-rule="evenodd" d="M97.2168 337.535C177.938 307.018 310.601 277.074 433.62 273.657L625.744 63.2155C680.428 149.508 735.119 235.801 789.802 322.087C800.083 324.167 810.356 326.247 820.637 328.319L632.999 37.32H489.772V105.707H466.372V1.28467H397.67V37.32H366.441C276.699 137.387 186.958 237.461 97.2168 337.535Z" fill="#2760B6"/>
<path fill-rule="evenodd" clip-rule="evenodd" d="M625.593 80.288L771.658 317.865L742.395 314.027L610.674 96.4709L625.593 80.288Z" fill="#2760B6"/>
<path fill-rule="evenodd" clip-rule="evenodd" d="M981.166 159.123L1127.24 396.7L1097.98 392.855L966.254 175.299L981.166 159.123Z" fill="#2760B6"/>
<path fill-rule="evenodd" clip-rule="evenodd" d="M693.715 105.707L816.084 301.563L984.753 140.202L1178.23 447.468L1210.46 461.894L988.235 105.707H846.683L847.126 162.715H827.977V37.3199H751.701V105.707H693.715Z" fill="#2760B6"/>
<path fill-rule="evenodd" clip-rule="evenodd" d="M135.602 586.071C44.4558 510.926 60.7176 454.198 149.517 408.191C301.786 329.286 470.012 308.299 642.627 302.368C445.38 280.31 256.157 291.185 75.2972 367.898C-30.1867 412.638 -36.3826 524.616 135.602 586.071Z" fill="#2760B6"/>
<mask id="mask0_88_13733" style="mask-type:luminance" maskUnits="userSpaceOnUse" x="192" y="325" width="1092" height="340">
<path d="M192.732 325.448H1283.63V664.261H192.732V325.448Z" fill="white"/>
</mask>
<g mask="url(#mask0_88_13733)">
<path fill-rule="evenodd" clip-rule="evenodd" d="M484.672 663.701C255.102 635.39 237.996 495.716 435.824 430.312C696.533 344.124 988.692 416.72 1283.82 515.912C950.505 357.149 625.068 242.93 302.524 402.204C115.045 494.792 164.682 672.917 484.672 663.701Z" fill="#2760B6"/>
</g>
<path fill-rule="evenodd" clip-rule="evenodd" d="M561.342 157.736L568.057 207.798L597.902 212.987L591.179 162.932L561.342 157.736ZM605.925 165.488L612.633 215.55L642.471 220.732L635.756 170.677L605.925 165.488ZM600.221 230.311L570.383 225.122L577.098 275.184L606.943 280.373L600.221 230.311ZM644.797 238.063L614.959 232.874L621.675 282.929L651.512 288.125L644.797 238.063Z" fill="#2760B6"/>
<path fill-rule="evenodd" clip-rule="evenodd" d="M927.768 243.203L934.157 290.849L963.15 300.12L956.754 252.474L927.768 243.203ZM971.07 257.054L977.46 304.693L1006.44 313.964L1000.05 266.319L971.07 257.054ZM1008.65 330.455L979.675 321.191L986.065 368.836L1015.04 378.108L1008.65 330.455ZM965.359 316.618L936.373 307.347L942.763 354.985L971.749 364.257L965.359 316.618Z" fill="#2760B6"/>
</svg>
