<svg width="8" height="8" viewBox="0 0 8 8" fill="none" xmlns="http://www.w3.org/2000/svg">
<g id="Group">
<path id="Vector" opacity="0.2" d="M7.375 4C7.375 4.66751 7.17706 5.32003 6.80621 5.87505C6.43536 6.43007 5.90826 6.86265 5.29156 7.11809C4.67486 7.37354 3.99626 7.44038 3.34157 7.31015C2.68689 7.17993 2.08552 6.85849 1.61352 6.38649C1.14151 5.91448 0.820076 5.31312 0.689851 4.65843C0.559626 4.00374 0.626462 3.32514 0.881908 2.70844C1.13735 2.09174 1.56994 1.56464 2.12495 1.19379C2.67997 0.822941 3.33249 0.625 4 0.625C4.89511 0.625 5.75355 0.980579 6.38649 1.61351C7.01942 2.24645 7.375 3.10489 7.375 4Z" fill="#FFFDFD"/>
<path id="Vector_2" d="M4.84375 4C4.84375 4.16688 4.79427 4.33001 4.70155 4.46876C4.60884 4.60752 4.47706 4.71566 4.32289 4.77952C4.16871 4.84338 3.99906 4.86009 3.83539 4.82754C3.67172 4.79498 3.52138 4.71462 3.40338 4.59662C3.28538 4.47862 3.20502 4.32828 3.17246 4.16461C3.13991 4.00094 3.15662 3.83129 3.22048 3.67711C3.28434 3.52294 3.39248 3.39116 3.53124 3.29845C3.66999 3.20573 3.83312 3.15625 4 3.15625C4.22378 3.15625 4.43839 3.24514 4.59662 3.40338C4.75486 3.56161 4.84375 3.77622 4.84375 4Z" fill="#FFFDFD"/>
</g>
</svg>
