<svg width="28" height="27" viewBox="0 0 28 27" fill="none" xmlns="http://www.w3.org/2000/svg">
<g id="ic:round-done">
<path id="Vector" d="M10.6874 18.1375L6.82284 14.2729C6.72178 14.1706 6.60143 14.0894 6.46875 14.0339C6.33607 13.9785 6.19371 13.95 6.04992 13.95C5.90613 13.95 5.76377 13.9785 5.63109 14.0339C5.49842 14.0894 5.37806 14.1706 5.277 14.2729C5.17471 14.3739 5.0935 14.4943 5.03807 14.627C4.98264 14.7596 4.9541 14.902 4.9541 15.0458C4.9541 15.1896 4.98264 15.3319 5.03807 15.4646C5.0935 15.5973 5.17471 15.7176 5.277 15.8187L9.90346 20.4452C10.3341 20.8758 11.0297 20.8758 11.4603 20.4452L23.1645 8.75204C23.2668 8.65098 23.348 8.53062 23.4034 8.39795C23.4589 8.26527 23.4874 8.12291 23.4874 7.97912C23.4874 7.83533 23.4589 7.69297 23.4034 7.56029C23.348 7.42761 23.2668 7.30726 23.1645 7.2062C23.0634 7.10391 22.9431 7.0227 22.8104 6.96727C22.6777 6.91184 22.5354 6.8833 22.3916 6.8833C22.2478 6.8833 22.1054 6.91184 21.9728 6.96727C21.8401 7.0227 21.7197 7.10391 21.6187 7.2062L10.6874 18.1375Z" fill="#FFFDFD"/>
</g>
</svg>
