<svg width="165" height="55" viewBox="0 0 165 55" fill="none" xmlns="http://www.w3.org/2000/svg">
<g id="Alcor Construction and Restoration logo 2021 1" clip-path="url(#clip0_502_2784)">
<g id="Group">
<g id="Group_2">
<path id="Vector" d="M36.5777 36.7854H26.8917L26.4514 31.5274H15.9948L13.5183 36.7854H2.86914L20.9479 4.60107H31.487L36.5777 36.7854ZM25.8185 24.6921L24.8279 12.9585H24.7453L19.2419 24.6921H25.8185Z" fill="#F3742B"/>
<path id="Vector_2" d="M65.3886 28.9266L63.7651 36.7859H37.9814L44.7782 4.60156H54.7394L49.5112 28.9266H65.3886Z" fill="#F3742B"/>
<path id="Vector_3" d="M97.4741 15.1723L88.3934 16.1962V16.0302C88.3934 14.4528 87.9256 13.2905 86.99 12.5433C86.0544 11.7961 85.0363 11.4087 83.9081 11.4087C82.4497 11.4087 81.0463 11.9345 79.6429 13.0138C78.2671 14.093 77.1389 15.7258 76.3134 17.9396C75.4878 20.1535 75.0476 22.3121 75.0476 24.3876C75.0476 25.9926 75.4878 27.321 76.3409 28.4002C77.1939 29.4795 78.4597 30.0053 80.0832 30.0053C81.5967 30.0053 82.8624 29.5349 83.9081 28.5663C84.9537 27.5977 85.8618 26.1033 86.6598 24.1108L95.9056 25.5499C94.9425 28.8707 93.0988 31.6657 90.3196 33.935C87.5679 36.2042 83.9631 37.3388 79.5604 37.3388C74.9375 37.3388 71.4153 36.0935 68.9938 33.6305C66.5447 31.1676 65.334 27.8744 65.334 23.7511C65.334 20.5963 66.0494 17.4415 67.5078 14.2591C68.9663 11.0766 71.0576 8.58598 73.8368 6.7872C76.616 4.96075 79.9456 4.0752 83.8255 4.0752C87.8431 4.0752 91.0351 5.09912 93.374 7.11928C95.7405 9.13945 97.0888 11.8238 97.4741 15.1723Z" fill="#F3742B"/>
<path id="Vector_4" d="M117.148 4.04785C122.019 4.04785 125.596 5.34851 127.88 7.9775C130.164 10.6065 131.32 13.8443 131.32 17.6632C131.32 19.1299 131.1 20.818 130.687 22.7275C130.274 24.6093 129.449 26.5741 128.238 28.622C127.027 30.6421 125.459 32.3579 123.532 33.7692C121.606 35.1806 119.763 36.1215 117.974 36.5919C116.185 37.0624 114.314 37.3115 112.333 37.3115C107.765 37.3115 104.188 36.1492 101.629 33.8246C99.0697 31.5 97.7764 28.2345 97.7764 24.0282C97.7764 21.8419 98.0791 19.6834 98.7395 17.6079C99.3724 15.5324 100.308 13.5676 101.574 11.7134C102.84 9.8593 104.38 8.30958 106.224 7.06427C108.068 5.81896 109.884 4.98875 111.645 4.629C113.461 4.24157 115.277 4.04785 117.148 4.04785ZM112.938 30.0056C114.837 30.0056 116.461 29.2861 117.781 27.8194C119.102 26.3804 120.093 24.5539 120.698 22.3401C121.304 20.1262 121.606 18.5765 121.606 17.6356C121.606 15.56 121.083 14.0103 120.038 12.9587C118.992 11.9071 117.671 11.3813 116.048 11.3813C114.232 11.3813 112.691 12.0455 111.397 13.3738C110.104 14.7022 109.113 16.4733 108.453 18.6595C107.793 20.8734 107.462 22.7275 107.462 24.2772C107.462 25.91 107.93 27.266 108.893 28.3729C109.911 29.4522 111.26 30.0056 112.938 30.0056Z" fill="#F3742B"/>
<path id="Vector_5" d="M137.538 4.60107H155.727C158.864 4.60107 161.175 5.43128 162.634 7.09169C164.092 8.75211 164.807 10.7446 164.807 13.0692C164.807 15.5875 164.037 17.7737 162.496 19.6555C160.955 21.5373 158.479 22.7272 155.094 23.253C157.103 24.8858 159.497 29.3966 162.303 36.7854H151.847C150.966 34.4608 149.948 31.9149 148.765 29.1475C147.582 26.3802 146.701 24.8028 146.096 24.36C145.49 23.9172 144.775 23.6958 143.922 23.6958H143.399L140.675 36.7854H130.741L137.538 4.60107ZM144.692 17.6907H146.564C149.701 17.6907 151.737 17.5523 152.672 17.2479C153.608 16.9435 154.296 16.473 154.736 15.7535C155.176 15.0617 155.424 14.3975 155.424 13.7333C155.424 12.9031 155.149 12.2666 154.626 11.7962C154.076 11.3257 152.92 11.1044 151.104 11.1044H146.096L144.692 17.6907Z" fill="#F3742B"/>
</g>
</g>
<path id="Vector_6" d="M177.163 5.20947H-6.51465V8.66867H177.163V5.20947Z" fill="#091D3D"/>
<path id="Vector_7" d="M177.163 9.80371H-6.51465V12.9862H177.163V9.80371Z" fill="#091D3D"/>
<path id="Vector_8" d="M177.163 14.397H-6.51465V17.3027H177.163V14.397Z" fill="#091D3D"/>
<path id="Vector_9" d="M177.163 19.0737H-6.51465V21.7027H177.163V19.0737Z" fill="#091D3D"/>
<path id="Vector_10" d="M177.163 23.7227H-6.51465V25.9365H177.163V23.7227Z" fill="#091D3D"/>
<path id="Vector_11" d="M177.163 28.7046H-6.51465V30.365H177.163V28.7046Z" fill="#091D3D"/>
<path id="Vector_12" d="M177.163 33.52H-6.51465V34.627H177.163V33.52Z" fill="#091D3D"/>
<g id="Group_3">
<g id="Group_4">
<path id="Vector_13" d="M4.57473 47.9376C4.16197 47.7162 3.83177 47.3841 3.61163 46.9967C3.39149 46.6093 3.25391 46.1388 3.25391 45.6407C3.25391 45.1426 3.36397 44.6721 3.61163 44.2847C3.85928 43.8696 4.16197 43.5652 4.60225 43.3438C5.01501 43.1224 5.4828 43.0117 6.00562 43.0117C6.41838 43.0117 6.77611 43.0671 7.10631 43.2054C7.43652 43.3438 7.71169 43.5375 7.95935 43.8143L7.49155 44.2847C7.10631 43.8696 6.611 43.6759 6.03314 43.6759C5.6479 43.6759 5.29018 43.7589 4.98749 43.9249C4.6848 44.091 4.43715 44.3401 4.27204 44.6445C4.10694 44.9489 3.99687 45.281 3.99687 45.6684C3.99687 46.0558 4.07942 46.3879 4.27204 46.6923C4.43715 46.9967 4.6848 47.2458 4.98749 47.4118C5.29018 47.5779 5.6479 47.6609 6.03314 47.6609C6.611 47.6609 7.0788 47.4395 7.49155 47.0521L7.95935 47.5225C7.71169 47.7992 7.43652 47.993 7.10631 48.1313C6.77611 48.2697 6.39087 48.3527 6.00562 48.3527C5.45528 48.2697 4.98749 48.159 4.57473 47.9376Z" fill="#F3742B"/>
<path id="Vector_14" d="M11.3991 47.9371C10.9864 47.7157 10.6562 47.3837 10.4085 46.9962C10.1608 46.5811 10.0508 46.1383 10.0508 45.6402C10.0508 45.1421 10.1608 44.6993 10.4085 44.2842C10.6562 43.8691 10.9864 43.5647 11.3991 43.3433C11.8119 43.1219 12.2797 43.0112 12.8025 43.0112C13.3253 43.0112 13.7931 43.1219 14.2059 43.3433C14.6186 43.5647 14.9488 43.8968 15.1965 44.2842C15.4442 44.6993 15.5542 45.1421 15.5542 45.6402C15.5542 46.1383 15.4442 46.6088 15.1965 46.9962C14.9488 47.3837 14.6462 47.7157 14.2059 47.9371C13.7931 48.1585 13.3253 48.2692 12.8025 48.2692C12.2797 48.2692 11.8119 48.1585 11.3991 47.9371ZM13.8206 47.356C14.1233 47.1899 14.371 46.9409 14.5361 46.6365C14.7012 46.3321 14.8113 46 14.8113 45.6125C14.8113 45.2251 14.7287 44.893 14.5361 44.5886C14.3435 44.2842 14.1233 44.0352 13.8206 43.8691C13.5179 43.7031 13.1877 43.6201 12.8025 43.6201C12.4173 43.6201 12.0871 43.7031 11.7844 43.8691C11.4817 44.0352 11.234 44.2842 11.0689 44.5886C10.9038 44.893 10.7937 45.2251 10.7937 45.6125C10.7937 46 10.8763 46.3321 11.0689 46.6365C11.234 46.9409 11.4817 47.1899 11.7844 47.356C12.0871 47.522 12.4448 47.605 12.8025 47.605C13.1602 47.605 13.5179 47.5497 13.8206 47.356Z" fill="#F3742B"/>
<path id="Vector_15" d="M22.5709 43.0391V48.214H21.9655L18.8836 44.3397V48.214H18.1406V43.0391H18.746L21.8279 46.9134V43.0391H22.5709Z" fill="#F3742B"/>
<path id="Vector_16" d="M25.9829 48.1035C25.6252 47.9928 25.35 47.8268 25.1299 47.633L25.4051 47.0519C25.5977 47.2179 25.8453 47.384 26.148 47.4947C26.4507 47.6054 26.7809 47.6607 27.0836 47.6607C27.5239 47.6607 27.8266 47.5777 28.0467 47.4393C28.2668 47.301 28.3769 47.1072 28.3769 46.8582C28.3769 46.6921 28.3219 46.5261 28.2118 46.4154C28.1017 46.3047 27.9642 46.2217 27.7715 46.1663C27.6064 46.111 27.3588 46.028 27.0561 45.9726C26.6708 45.8896 26.3682 45.7789 26.1205 45.6959C25.8728 45.6129 25.6802 45.4468 25.5151 45.2531C25.35 45.0594 25.2675 44.7827 25.2675 44.4506C25.2675 44.1739 25.35 43.9248 25.4876 43.7034C25.6252 43.482 25.8453 43.316 26.148 43.1776C26.4507 43.0392 26.8084 42.9839 27.2487 42.9839C27.5514 42.9839 27.8541 43.0116 28.1568 43.0946C28.4595 43.1776 28.7071 43.2883 28.9273 43.4267L28.6796 44.0078C28.4595 43.8694 28.2393 43.7587 27.9917 43.7034C27.744 43.6204 27.4964 43.5927 27.2762 43.5927C26.8635 43.5927 26.5333 43.6757 26.3406 43.8141C26.1205 43.9801 26.038 44.1738 26.038 44.3952C26.038 44.5613 26.093 44.7273 26.2031 44.838C26.3131 44.9487 26.4782 45.0317 26.6433 45.0871C26.8084 45.1424 27.0561 45.2254 27.3588 45.2808C27.744 45.3638 28.0467 45.4745 28.2944 45.5575C28.542 45.6405 28.7346 45.8066 28.8997 46.0003C29.0648 46.194 29.1474 46.4431 29.1474 46.7752C29.1474 47.0519 29.0648 47.301 28.9273 47.5223C28.7897 47.7437 28.5695 47.9375 28.2668 48.0481C27.9642 48.1865 27.6064 48.2419 27.1662 48.2419C26.6984 48.2695 26.3406 48.2142 25.9829 48.1035Z" fill="#F3742B"/>
<path id="Vector_17" d="M32.6693 43.6756H30.9082V43.0391H35.1734V43.6756H33.4123V48.214H32.6693V43.6756Z" fill="#F3742B"/>
<path id="Vector_18" d="M40.8967 48.214L39.796 46.6089C39.6584 46.6089 39.5483 46.6366 39.4658 46.6366H38.2V48.214H37.457V43.0391H39.4658C40.1262 43.0391 40.649 43.2051 41.0343 43.5095C41.4195 43.8416 41.6121 44.2844 41.6121 44.8378C41.6121 45.2253 41.5021 45.585 41.3094 45.8618C41.1168 46.1385 40.8416 46.3599 40.4564 46.4706L41.6672 48.214H40.8967ZM40.5114 45.7234C40.7591 45.5297 40.8692 45.2253 40.8692 44.8655C40.8692 44.4781 40.7591 44.2014 40.5114 44.0076C40.2638 43.8139 39.9061 43.7032 39.4383 43.7032H38.1725V46.0278H39.4383C39.9061 46.0278 40.2638 45.9171 40.5114 45.7234Z" fill="#F3742B"/>
<path id="Vector_19" d="M44.8054 47.6882C44.4202 47.3008 44.2275 46.7196 44.2275 45.9725V43.0391H44.9705V45.9725C44.9705 47.0794 45.4658 47.6329 46.4289 47.6329C46.8967 47.6329 47.2544 47.4945 47.5021 47.2178C47.7497 46.941 47.8873 46.5259 47.8873 45.9725V43.0391H48.6028V46.0001C48.6028 46.7473 48.4102 47.3285 48.0249 47.7159C47.6397 48.1033 47.1168 48.297 46.4289 48.297C45.7135 48.2694 45.1906 48.0756 44.8054 47.6882Z" fill="#F3742B"/>
<path id="Vector_20" d="M52.4829 47.9376C52.0702 47.7162 51.74 47.3841 51.5198 46.9967C51.2997 46.6093 51.1621 46.1388 51.1621 45.6407C51.1621 45.1426 51.2722 44.6721 51.5198 44.2847C51.7675 43.8696 52.0702 43.5652 52.5105 43.3438C52.9232 43.1224 53.391 43.0117 53.9138 43.0117C54.3266 43.0117 54.6843 43.0671 55.0145 43.2054C55.3447 43.3438 55.6199 43.5375 55.8675 43.8143L55.3998 44.2847C55.0145 43.8696 54.5192 43.6759 53.9413 43.6759C53.5561 43.6759 53.1984 43.7589 52.8957 43.9249C52.593 44.091 52.3453 44.3401 52.1802 44.6445C52.0151 44.9489 51.9051 45.281 51.9051 45.6684C51.9051 46.0558 51.9876 46.3879 52.1802 46.6923C52.3453 46.9967 52.593 47.2458 52.8957 47.4118C53.1984 47.5779 53.5561 47.6609 53.9413 47.6609C54.5192 47.6609 54.987 47.4395 55.3998 47.0521L55.8675 47.5225C55.6199 47.7992 55.3447 47.993 55.0145 48.1313C54.6843 48.2697 54.2991 48.3527 53.9138 48.3527C53.3635 48.2697 52.8957 48.159 52.4829 47.9376Z" fill="#F3742B"/>
<path id="Vector_21" d="M59.4164 43.6756H57.6553V43.0391H61.9204V43.6756H60.1593V48.214H59.4164V43.6756Z" fill="#F3742B"/>
<path id="Vector_22" d="M64.1768 43.0391H64.9197V48.214H64.1768V43.0391Z" fill="#F3742B"/>
<path id="Vector_23" d="M68.8552 47.9376C68.4424 47.7162 68.1122 47.3841 67.8646 46.9967C67.6169 46.5816 67.5068 46.1388 67.5068 45.6407C67.5068 45.1426 67.6169 44.6998 67.8646 44.2847C68.1122 43.8696 68.4424 43.5652 68.8552 43.3438C69.2679 43.1224 69.7357 43.0117 70.2586 43.0117C70.7814 43.0117 71.2492 43.1224 71.6619 43.3438C72.0747 43.5652 72.4049 43.8973 72.6525 44.2847C72.9002 44.6998 73.0103 45.1426 73.0103 45.6407C73.0103 46.1388 72.9002 46.6093 72.6525 46.9967C72.4049 47.3841 72.1022 47.7162 71.6619 47.9376C71.2492 48.159 70.7814 48.2697 70.2586 48.2697C69.7632 48.2697 69.2679 48.159 68.8552 47.9376ZM71.3042 47.3565C71.6069 47.1904 71.8546 46.9414 72.0197 46.637C72.1848 46.3325 72.2948 46.0005 72.2948 45.613C72.2948 45.2256 72.2123 44.8935 72.0197 44.5891C71.827 44.2847 71.6069 44.0356 71.3042 43.8696C71.0015 43.7036 70.6713 43.6205 70.2861 43.6205C69.9008 43.6205 69.5706 43.7036 69.2679 43.8696C68.9652 44.0356 68.7176 44.2847 68.5525 44.5891C68.3874 44.8935 68.2773 45.2256 68.2773 45.613C68.2773 46.0005 68.3599 46.3325 68.5525 46.637C68.7176 46.9414 68.9652 47.1904 69.2679 47.3565C69.5706 47.5225 69.9283 47.6055 70.2861 47.6055C70.6438 47.6055 71.0015 47.5502 71.3042 47.3565Z" fill="#F3742B"/>
<path id="Vector_24" d="M80.0533 43.0391V48.214H79.4479L76.366 44.3397V48.214H75.623V43.0391H76.2284L79.3103 46.9134V43.0391H80.0533Z" fill="#F3742B"/>
<path id="Vector_25" d="M90.2902 48.2972L89.6023 47.6054C89.1345 48.0481 88.5566 48.2695 87.8687 48.2695C87.5385 48.2695 87.2083 48.2142 86.9331 48.1035C86.6579 47.9928 86.4378 47.8268 86.3002 47.633C86.1351 47.4393 86.0801 47.1903 86.0801 46.9412C86.0801 46.6368 86.1901 46.3324 86.3828 46.111C86.5754 45.8619 86.9056 45.6129 87.3459 45.3638C87.1257 45.1424 86.9606 44.921 86.8781 44.755C86.7955 44.5613 86.7405 44.3952 86.7405 44.1739C86.7405 43.8141 86.8781 43.5374 87.1257 43.316C87.3734 43.0946 87.7036 42.9839 88.1439 42.9839C88.5291 42.9839 88.8593 43.0669 89.0795 43.2606C89.2996 43.4543 89.4372 43.7311 89.4372 44.0632C89.4372 44.3122 89.3546 44.5613 89.1895 44.755C89.0244 44.9487 88.7492 45.1701 88.3365 45.4192L89.6023 46.6921C89.7399 46.4154 89.8499 46.0833 89.9325 45.7512L90.5103 45.945C90.4278 46.3877 90.2627 46.8028 90.0701 47.1349L90.758 47.8268L90.2902 48.2972ZM89.1895 47.1903L87.7311 45.7236C87.3734 45.9173 87.1257 46.111 86.9881 46.277C86.8506 46.4431 86.768 46.6368 86.768 46.8582C86.768 47.1072 86.8781 47.301 87.0982 47.467C87.3183 47.633 87.5935 47.6884 87.9237 47.6884C88.4466 47.6884 88.8593 47.5223 89.1895 47.1903ZM87.566 43.6757C87.4284 43.7864 87.3734 43.9525 87.3734 44.1185C87.3734 44.2569 87.4009 44.3676 87.4834 44.5059C87.566 44.6166 87.7036 44.8103 87.8962 45.0041C88.2264 44.8103 88.4741 44.6443 88.6117 44.5059C88.7492 44.3676 88.8043 44.2292 88.8043 44.0632C88.8043 43.8971 88.7492 43.7587 88.6117 43.6481C88.4741 43.5374 88.3365 43.482 88.1163 43.482C87.8687 43.5097 87.7036 43.565 87.566 43.6757Z" fill="#F3742B"/>
<path id="Vector_26" d="M99.9484 48.214L98.8478 46.6089C98.7102 46.6089 98.6001 46.6366 98.5175 46.6366H97.2517V48.214H96.5088V43.0391H98.5175C99.178 43.0391 99.7008 43.2051 100.086 43.5095C100.471 43.8416 100.664 44.2844 100.664 44.8378C100.664 45.2253 100.554 45.585 100.361 45.8618C100.169 46.1385 99.8934 46.3599 99.5082 46.4706L100.719 48.214H99.9484ZM99.5632 45.7234C99.8109 45.5297 99.9209 45.2253 99.9209 44.8655C99.9209 44.4781 99.8109 44.2014 99.5632 44.0076C99.3155 43.8139 98.9578 43.7032 98.49 43.7032H97.2242V46.0278H98.49C98.9578 46.0278 99.3155 45.9171 99.5632 45.7234Z" fill="#F3742B"/>
<path id="Vector_27" d="M107.076 47.5775V48.214H103.334V43.0391H106.966V43.6756H104.049V45.2806H106.636V45.9171H104.049V47.6052H107.076V47.5775Z" fill="#F3742B"/>
<path id="Vector_28" d="M110.13 48.1035C109.773 47.9928 109.497 47.8268 109.277 47.633L109.553 47.0519C109.745 47.2179 109.993 47.384 110.295 47.4947C110.598 47.6054 110.928 47.6607 111.231 47.6607C111.671 47.6607 111.974 47.5777 112.194 47.4393C112.414 47.301 112.524 47.1072 112.524 46.8582C112.524 46.6921 112.469 46.5261 112.359 46.4154C112.249 46.3047 112.112 46.2217 111.919 46.1663C111.754 46.111 111.506 46.028 111.204 45.9726C110.818 45.8896 110.516 45.7789 110.268 45.6959C110.02 45.6129 109.828 45.4468 109.663 45.2531C109.497 45.0594 109.415 44.7827 109.415 44.4506C109.415 44.1739 109.497 43.9248 109.635 43.7034C109.773 43.482 109.993 43.316 110.295 43.1776C110.598 43.0392 110.956 42.9839 111.396 42.9839C111.699 42.9839 112.002 43.0116 112.304 43.0946C112.607 43.1776 112.855 43.2883 113.075 43.4267L112.827 44.0078C112.607 43.8694 112.387 43.7587 112.139 43.7034C111.891 43.6204 111.644 43.5927 111.424 43.5927C111.011 43.5927 110.681 43.6757 110.488 43.8141C110.268 43.9801 110.185 44.1738 110.185 44.3952C110.185 44.5613 110.24 44.7273 110.351 44.838C110.461 44.9487 110.626 45.0317 110.791 45.0871C110.956 45.1424 111.204 45.2254 111.506 45.2808C111.891 45.3638 112.194 45.4745 112.442 45.5575C112.689 45.6405 112.882 45.8066 113.047 46.0003C113.212 46.194 113.295 46.4431 113.295 46.7752C113.295 47.0519 113.212 47.301 113.075 47.5223C112.937 47.7437 112.717 47.9375 112.414 48.0481C112.112 48.1865 111.754 48.2419 111.314 48.2419C110.873 48.2695 110.488 48.2142 110.13 48.1035Z" fill="#F3742B"/>
<path id="Vector_29" d="M116.818 43.6756H115.057V43.0391H119.322V43.6756H117.561V48.214H116.818V43.6756Z" fill="#F3742B"/>
<path id="Vector_30" d="M122.513 47.9376C122.101 47.7162 121.77 47.3841 121.523 46.9967C121.275 46.5816 121.165 46.1388 121.165 45.6407C121.165 45.1426 121.275 44.6998 121.523 44.2847C121.77 43.8696 122.101 43.5652 122.513 43.3438C122.926 43.1224 123.394 43.0117 123.917 43.0117C124.44 43.0117 124.907 43.1224 125.32 43.3438C125.733 43.5652 126.063 43.8973 126.311 44.2847C126.558 44.6998 126.668 45.1426 126.668 45.6407C126.668 46.1388 126.558 46.6093 126.311 46.9967C126.063 47.3841 125.76 47.7162 125.32 47.9376C124.907 48.159 124.44 48.2697 123.917 48.2697C123.421 48.2697 122.954 48.159 122.513 47.9376ZM124.962 47.3565C125.265 47.1904 125.513 46.9414 125.678 46.637C125.843 46.3325 125.953 46.0005 125.953 45.613C125.953 45.2256 125.87 44.8935 125.678 44.5891C125.485 44.2847 125.265 44.0356 124.962 43.8696C124.66 43.7036 124.33 43.6205 123.944 43.6205C123.559 43.6205 123.229 43.7036 122.926 43.8696C122.623 44.0356 122.376 44.2847 122.211 44.5891C122.046 44.8935 121.936 45.2256 121.936 45.613C121.936 46.0005 122.018 46.3325 122.211 46.637C122.376 46.9414 122.623 47.1904 122.926 47.3565C123.229 47.5225 123.587 47.6055 123.944 47.6055C124.302 47.6055 124.66 47.5502 124.962 47.3565Z" fill="#F3742B"/>
<path id="Vector_31" d="M132.722 48.214L131.621 46.6089C131.484 46.6089 131.374 46.6366 131.291 46.6366H130.025V48.214H129.282V43.0391H131.291C131.951 43.0391 132.474 43.2051 132.859 43.5095C133.245 43.8416 133.437 44.2844 133.437 44.8378C133.437 45.2253 133.327 45.585 133.135 45.8618C132.942 46.1385 132.667 46.3599 132.282 46.4706L133.492 48.214H132.722ZM132.337 45.7234C132.584 45.5297 132.694 45.2253 132.694 44.8655C132.694 44.4781 132.584 44.2014 132.337 44.0076C132.089 43.8139 131.731 43.7032 131.263 43.7032H129.998V46.0278H131.263C131.731 46.0278 132.089 45.9171 132.337 45.7234Z" fill="#F3742B"/>
<path id="Vector_32" d="M139.382 46.9134H136.631L136.053 48.214H135.282L137.621 43.0391H138.364L140.703 48.214H139.933L139.382 46.9134ZM139.135 46.3322L138.034 43.7862L136.933 46.3322H139.135Z" fill="#F3742B"/>
<path id="Vector_33" d="M144.004 43.6756H142.243V43.0391H146.508V43.6756H144.747V48.214H144.004V43.6756Z" fill="#F3742B"/>
<path id="Vector_34" d="M148.765 43.0391H149.508V48.214H148.765V43.0391Z" fill="#F3742B"/>
<path id="Vector_35" d="M153.443 47.9371C153.03 47.7157 152.7 47.3837 152.452 46.9962C152.205 46.5811 152.095 46.1383 152.095 45.6402C152.095 45.1421 152.205 44.6993 152.452 44.2842C152.7 43.8691 153.03 43.5647 153.443 43.3433C153.856 43.1219 154.324 43.0112 154.846 43.0112C155.369 43.0112 155.837 43.1219 156.25 43.3433C156.663 43.5647 156.993 43.8968 157.24 44.2842C157.488 44.6993 157.598 45.1421 157.598 45.6402C157.598 46.1383 157.488 46.6088 157.24 46.9962C156.993 47.3837 156.69 47.7157 156.25 47.9371C155.837 48.1585 155.369 48.2692 154.846 48.2692C154.351 48.2692 153.883 48.1585 153.443 47.9371ZM155.892 47.356C156.195 47.1899 156.442 46.9409 156.608 46.6365C156.773 46.3321 156.883 46 156.883 45.6125C156.883 45.2251 156.8 44.893 156.608 44.5886C156.415 44.2842 156.195 44.0352 155.892 43.8691C155.589 43.7031 155.259 43.6201 154.874 43.6201C154.489 43.6201 154.159 43.7031 153.856 43.8691C153.553 44.0352 153.305 44.2842 153.14 44.5886C152.975 44.893 152.865 45.2251 152.865 45.6125C152.865 46 152.948 46.3321 153.14 46.6365C153.305 46.9409 153.553 47.1899 153.856 47.356C154.159 47.522 154.516 47.605 154.874 47.605C155.232 47.605 155.589 47.5497 155.892 47.356Z" fill="#F3742B"/>
<path id="Vector_36" d="M164.642 43.0391V48.214H164.037L160.955 44.3397V48.214H160.185V43.0391H160.79L163.872 46.9134V43.0391H164.642Z" fill="#F3742B"/>
</g>
</g>
</g>
<defs>
<clipPath id="clip0_502_2784">
<rect width="165" height="55" fill="white"/>
</clipPath>
</defs>
</svg>
