<svg width="34" height="34" viewBox="0 0 34 34" fill="none" xmlns="http://www.w3.org/2000/svg">
<g id="ph:house-light">
<path id="Vector" d="M28.7435 14.0128L18.2435 4.1034L18.2317 4.0929C17.8944 3.78393 17.4535 3.61255 16.996 3.61255C16.5385 3.61255 16.0977 3.78393 15.7603 4.0929L15.7485 4.1034L5.24848 14.0128C5.06276 14.1857 4.91487 14.3952 4.81412 14.6281C4.71337 14.861 4.66195 15.1122 4.6631 15.366V27.5C4.6631 27.9874 4.8567 28.4547 5.2013 28.7993C5.54589 29.1439 6.01327 29.3375 6.5006 29.3375H12.8006C13.2879 29.3375 13.7553 29.1439 14.0999 28.7993C14.4445 28.4547 14.6381 27.9874 14.6381 27.5V21.2C14.6381 21.1304 14.6658 21.0636 14.715 21.0144C14.7642 20.9652 14.831 20.9375 14.9006 20.9375H19.1006C19.1702 20.9375 19.237 20.9652 19.2862 21.0144C19.3354 21.0636 19.3631 21.1304 19.3631 21.2V27.5C19.3631 27.9874 19.5567 28.4547 19.9013 28.7993C20.2459 29.1439 20.7133 29.3375 21.2006 29.3375H27.5006C27.9879 29.3375 28.4553 29.1439 28.7999 28.7993C29.1445 28.4547 29.3381 27.9874 29.3381 27.5V15.366C29.3381 15.1115 29.2852 14.8599 29.1829 14.627C29.0805 14.394 28.9309 14.1849 28.7435 14.0128ZM27.7631 27.5C27.7631 27.5696 27.7354 27.6364 27.6862 27.6856C27.637 27.7349 27.5702 27.7625 27.5006 27.7625H21.2006C21.131 27.7625 21.0642 27.7349 21.015 27.6856C20.9658 27.6364 20.9381 27.5696 20.9381 27.5V21.2C20.9381 20.7127 20.7445 20.2453 20.3999 19.9007C20.0553 19.5561 19.5879 19.3625 19.1006 19.3625H14.9006C14.4133 19.3625 13.9459 19.5561 13.6013 19.9007C13.2567 20.2453 13.0631 20.7127 13.0631 21.2V27.5C13.0631 27.5696 13.0354 27.6364 12.9862 27.6856C12.937 27.7349 12.8702 27.7625 12.8006 27.7625H6.5006C6.43099 27.7625 6.36422 27.7349 6.31499 27.6856C6.26576 27.6364 6.2381 27.5696 6.2381 27.5V15.366C6.23802 15.3294 6.24557 15.2933 6.26026 15.2598C6.27495 15.2264 6.29646 15.1964 6.32342 15.1717L6.33523 15.1612L16.8274 5.25447C16.8752 5.21274 16.9365 5.18975 16.9999 5.18975C17.0634 5.18975 17.1247 5.21274 17.1725 5.25447L27.666 15.1625L27.6765 15.173C27.7037 15.1976 27.7254 15.2275 27.7403 15.261C27.7553 15.2944 27.763 15.3306 27.7631 15.3673V27.5Z" fill="#FFFDFD"/>
</g>
</svg>
