<svg width="48" height="48" viewBox="0 0 48 48" fill="none" xmlns="http://www.w3.org/2000/svg">
<g id="raphael:location">
<path id="Vector" d="M24 5.25C21.0163 5.25 18.1548 6.43526 16.045 8.54505C13.9353 10.6548 12.75 13.5163 12.75 16.5C12.75 22.7145 24 43.68 24 43.68C24 43.68 35.25 22.716 35.25 16.5C35.25 13.5163 34.0647 10.6548 31.955 8.54505C29.8452 6.43526 26.9837 5.25 24 5.25ZM24 21.876C22.5742 21.876 21.2068 21.3096 20.1986 20.3014C19.1904 19.2932 18.624 17.9258 18.624 16.5C18.624 15.0742 19.1904 13.7068 20.1986 12.6986C21.2068 11.6904 22.5742 11.124 24 11.124C25.4258 11.124 26.7932 11.6904 27.8014 12.6986C28.8096 13.7068 29.376 15.0742 29.376 16.5C29.376 17.9258 28.8096 19.2932 27.8014 20.3014C26.7932 21.3096 25.4258 21.876 24 21.876Z" fill="#FFFDFD"/>
</g>
</svg>
