<svg width="103" height="32" viewBox="0 0 103 32" fill="none" xmlns="http://www.w3.org/2000/svg">
<g clip-path="url(#clip0_351_11218)">
<path d="M7.1353 26.6826H6.60689C6.57564 26.5306 6.52095 26.397 6.44283 26.282C6.36612 26.1669 6.27237 26.0703 6.16158 25.9922C6.0522 25.9127 5.93075 25.853 5.79723 25.8132C5.66371 25.7735 5.5245 25.7536 5.37961 25.7536C5.11541 25.7536 4.87606 25.8203 4.66158 25.9539C4.44851 26.0874 4.27876 26.2841 4.15234 26.5441C4.02734 26.804 3.96484 27.1229 3.96484 27.5007C3.96484 27.8786 4.02734 28.1975 4.15234 28.4574C4.27876 28.7174 4.44851 28.9141 4.66158 29.0476C4.87606 29.1811 5.11541 29.2479 5.37961 29.2479C5.5245 29.2479 5.66371 29.228 5.79723 29.1882C5.93075 29.1485 6.0522 29.0895 6.16158 29.0114C6.27237 28.9318 6.36612 28.8345 6.44283 28.7195C6.52095 28.603 6.57564 28.4695 6.60689 28.3189H7.1353C7.09552 28.5419 7.02308 28.7415 6.91797 28.9176C6.81285 29.0938 6.68217 29.2436 6.52592 29.3672C6.36967 29.4894 6.19425 29.5824 5.99964 29.6463C5.80646 29.7103 5.59979 29.7422 5.37961 29.7422C5.00746 29.7422 4.67649 29.6513 4.38672 29.4695C4.09694 29.2877 3.86896 29.0291 3.70277 28.6939C3.53657 28.3587 3.45348 27.961 3.45348 27.5007C3.45348 27.0405 3.53657 26.6428 3.70277 26.3076C3.86896 25.9723 4.09694 25.7138 4.38672 25.532C4.67649 25.3502 5.00746 25.2593 5.37961 25.2593C5.59979 25.2593 5.80646 25.2912 5.99964 25.3551C6.19425 25.4191 6.36967 25.5128 6.52592 25.6364C6.68217 25.7586 6.81285 25.9077 6.91797 26.0838C7.02308 26.2586 7.09552 26.4581 7.1353 26.6826ZM11.671 27.5007C11.671 27.961 11.5879 28.3587 11.4217 28.6939C11.2555 29.0291 11.0275 29.2877 10.7377 29.4695C10.448 29.6513 10.117 29.7422 9.74485 29.7422C9.37269 29.7422 9.04172 29.6513 8.75195 29.4695C8.46218 29.2877 8.2342 29.0291 8.068 28.6939C7.90181 28.3587 7.81871 27.961 7.81871 27.5007C7.81871 27.0405 7.90181 26.6428 8.068 26.3076C8.2342 25.9723 8.46218 25.7138 8.75195 25.532C9.04172 25.3502 9.37269 25.2593 9.74485 25.2593C10.117 25.2593 10.448 25.3502 10.7377 25.532C11.0275 25.7138 11.2555 25.9723 11.4217 26.3076C11.5879 26.6428 11.671 27.0405 11.671 27.5007ZM11.1596 27.5007C11.1596 27.1229 11.0964 26.804 10.97 26.5441C10.845 26.2841 10.6752 26.0874 10.4608 25.9539C10.2477 25.8203 10.0091 25.7536 9.74485 25.7536C9.48064 25.7536 9.2413 25.8203 9.02681 25.9539C8.81374 26.0874 8.644 26.2841 8.51758 26.5441C8.39258 26.804 8.33008 27.1229 8.33008 27.5007C8.33008 27.8786 8.39258 28.1975 8.51758 28.4574C8.644 28.7174 8.81374 28.9141 9.02681 29.0476C9.2413 29.1811 9.48064 29.2479 9.74485 29.2479C10.0091 29.2479 10.2477 29.1811 10.4608 29.0476C10.6752 28.9141 10.845 28.7174 10.97 28.4574C11.0964 28.1975 11.1596 27.8786 11.1596 27.5007ZM16.0197 25.3189V29.6826H15.5083L13.1305 26.2564H13.0879V29.6826H12.5595V25.3189H13.0708L15.4572 28.7536H15.4998V25.3189H16.0197ZM19.4634 26.4098C19.4379 26.1939 19.3342 26.0263 19.1523 25.907C18.9705 25.7877 18.7475 25.728 18.4833 25.728C18.2901 25.728 18.1211 25.7593 17.9762 25.8218C17.8327 25.8843 17.7205 25.9702 17.6396 26.0796C17.56 26.1889 17.5202 26.3132 17.5202 26.4524C17.5202 26.5689 17.5479 26.6691 17.6033 26.7529C17.6602 26.8353 17.7326 26.9041 17.8207 26.9595C17.9087 27.0135 18.0011 27.0583 18.0977 27.0938C18.1942 27.1279 18.283 27.1556 18.364 27.1769L18.8072 27.2962C18.9208 27.326 19.0472 27.3672 19.1864 27.4198C19.3271 27.4723 19.4613 27.5441 19.5891 27.635C19.7184 27.7245 19.8249 27.8395 19.9087 27.9801C19.9925 28.1208 20.0344 28.2934 20.0344 28.4979C20.0344 28.7337 19.9727 28.9468 19.8491 29.1371C19.7269 29.3274 19.5479 29.4787 19.3121 29.5909C19.0778 29.7032 18.793 29.7593 18.4577 29.7593C18.1452 29.7593 17.8746 29.7088 17.646 29.608C17.4187 29.5071 17.2397 29.3665 17.109 29.1861C16.9798 29.0057 16.9066 28.7962 16.8896 28.5576H17.435C17.4492 28.7223 17.5046 28.8587 17.6012 28.9666C17.6992 29.0732 17.8228 29.1527 17.9719 29.2053C18.1225 29.2564 18.2844 29.282 18.4577 29.282C18.6594 29.282 18.8406 29.2493 19.0011 29.184C19.1616 29.1172 19.2887 29.0249 19.3825 28.907C19.4762 28.7877 19.5231 28.6485 19.5231 28.4894C19.5231 28.3445 19.4826 28.2266 19.4016 28.1357C19.3207 28.0448 19.2141 27.9709 19.082 27.9141C18.9499 27.8573 18.8072 27.8076 18.6538 27.7649L18.1168 27.6115C17.7759 27.5135 17.506 27.3736 17.3072 27.1918C17.1083 27.01 17.0089 26.772 17.0089 26.478C17.0089 26.2337 17.0749 26.0206 17.207 25.8388C17.3406 25.6556 17.5195 25.5135 17.744 25.4127C17.9698 25.3104 18.2219 25.2593 18.5004 25.2593C18.7816 25.2593 19.0316 25.3097 19.2504 25.4105C19.4691 25.51 19.6424 25.6463 19.7702 25.8196C19.8995 25.9929 19.9677 26.1897 19.9748 26.4098H19.4634ZM20.6646 25.7877V25.3189H23.9373V25.7877H22.5652V29.6826H22.0368V25.7877H20.6646ZM24.7528 29.6826V25.3189H26.2273C26.5682 25.3189 26.848 25.3772 27.0668 25.4936C27.2855 25.6087 27.4474 25.7671 27.5526 25.9688C27.6577 26.1705 27.7102 26.3999 27.7102 26.657C27.7102 26.9141 27.6577 27.1421 27.5526 27.3409C27.4474 27.5398 27.2862 27.6961 27.0689 27.8097C26.8516 27.9219 26.5739 27.978 26.2358 27.978H25.0426V27.5007H26.2187C26.4517 27.5007 26.6392 27.4666 26.7812 27.3985C26.9247 27.3303 27.0284 27.2337 27.0923 27.1087C27.1577 26.9823 27.1903 26.8317 27.1903 26.657C27.1903 26.4823 27.1577 26.3296 27.0923 26.1989C27.027 26.0682 26.9226 25.9674 26.7791 25.8963C26.6357 25.8239 26.446 25.7877 26.2102 25.7877H25.2812V29.6826H24.7528ZM26.8068 27.7223L27.8807 29.6826H27.267L26.2102 27.7223H26.8068ZM31.4544 25.3189H31.9828V28.2081C31.9828 28.5064 31.9125 28.7728 31.7718 29.0071C31.6326 29.2401 31.4359 29.424 31.1816 29.559C30.9274 29.6925 30.6291 29.7593 30.2868 29.7593C29.9444 29.7593 29.6461 29.6925 29.3919 29.559C29.1376 29.424 28.9402 29.2401 28.7995 29.0071C28.6603 28.7728 28.5907 28.5064 28.5907 28.2081V25.3189H29.1191V28.1655C29.1191 28.3786 29.166 28.5682 29.2598 28.7344C29.3535 28.8992 29.487 29.0291 29.6603 29.1243C29.835 29.2181 30.0439 29.2649 30.2868 29.2649C30.5297 29.2649 30.7385 29.2181 30.9132 29.1243C31.0879 29.0291 31.2214 28.8992 31.3137 28.7344C31.4075 28.5682 31.4544 28.3786 31.4544 28.1655V25.3189ZM36.5494 26.6826H36.021C35.9897 26.5306 35.935 26.397 35.8569 26.282C35.7802 26.1669 35.6864 26.0703 35.5756 25.9922C35.4663 25.9127 35.3448 25.853 35.2113 25.8132C35.0778 25.7735 34.9386 25.7536 34.7937 25.7536C34.5295 25.7536 34.2901 25.8203 34.0756 25.9539C33.8626 26.0874 33.6928 26.2841 33.5664 26.5441C33.4414 26.804 33.3789 27.1229 33.3789 27.5007C33.3789 27.8786 33.4414 28.1975 33.5664 28.4574C33.6928 28.7174 33.8626 28.9141 34.0756 29.0476C34.2901 29.1811 34.5295 29.2479 34.7937 29.2479C34.9386 29.2479 35.0778 29.228 35.2113 29.1882C35.3448 29.1485 35.4663 29.0895 35.5756 29.0114C35.6864 28.9318 35.7802 28.8345 35.8569 28.7195C35.935 28.603 35.9897 28.4695 36.021 28.3189H36.5494C36.5096 28.5419 36.4371 28.7415 36.332 28.9176C36.2269 29.0938 36.0962 29.2436 35.94 29.3672C35.7837 29.4894 35.6083 29.5824 35.4137 29.6463C35.2205 29.7103 35.0138 29.7422 34.7937 29.7422C34.4215 29.7422 34.0906 29.6513 33.8008 29.4695C33.511 29.2877 33.283 29.0291 33.1168 28.6939C32.9506 28.3587 32.8675 27.961 32.8675 27.5007C32.8675 27.0405 32.9506 26.6428 33.1168 26.3076C33.283 25.9723 33.511 25.7138 33.8008 25.532C34.0906 25.3502 34.4215 25.2593 34.7937 25.2593C35.0138 25.2593 35.2205 25.2912 35.4137 25.3551C35.6083 25.4191 35.7837 25.5128 35.94 25.6364C36.0962 25.7586 36.2269 25.9077 36.332 26.0838C36.4371 26.2586 36.5096 26.4581 36.5494 26.6826ZM37.1646 25.7877V25.3189H40.4373V25.7877H39.0652V29.6826H38.5368V25.7877H37.1646ZM41.7812 25.3189V29.6826H41.2528V25.3189H41.7812ZM46.5225 27.5007C46.5225 27.961 46.4395 28.3587 46.2733 28.6939C46.1071 29.0291 45.8791 29.2877 45.5893 29.4695C45.2995 29.6513 44.9686 29.7422 44.5964 29.7422C44.2243 29.7422 43.8933 29.6513 43.6035 29.4695C43.3137 29.2877 43.0858 29.0291 42.9196 28.6939C42.7534 28.3587 42.6703 27.961 42.6703 27.5007C42.6703 27.0405 42.7534 26.6428 42.9196 26.3076C43.0858 25.9723 43.3137 25.7138 43.6035 25.532C43.8933 25.3502 44.2243 25.2593 44.5964 25.2593C44.9686 25.2593 45.2995 25.3502 45.5893 25.532C45.8791 25.7138 46.1071 25.9723 46.2733 26.3076C46.4395 26.6428 46.5225 27.0405 46.5225 27.5007ZM46.0112 27.5007C46.0112 27.1229 45.948 26.804 45.8216 26.5441C45.6966 26.2841 45.5268 26.0874 45.3123 25.9539C45.0993 25.8203 44.8606 25.7536 44.5964 25.7536C44.3322 25.7536 44.0929 25.8203 43.8784 25.9539C43.6653 26.0874 43.4956 26.2841 43.3691 26.5441C43.2441 26.804 43.1816 27.1229 43.1816 27.5007C43.1816 27.8786 43.2441 28.1975 43.3691 28.4574C43.4956 28.7174 43.6653 28.9141 43.8784 29.0476C44.0929 29.1811 44.3322 29.2479 44.5964 29.2479C44.8606 29.2479 45.0993 29.1811 45.3123 29.0476C45.5268 28.9141 45.6966 28.7174 45.8216 28.4574C45.948 28.1975 46.0112 27.8786 46.0112 27.5007ZM50.8713 25.3189V29.6826H50.3599L47.9821 26.2564H47.9395V29.6826H47.411V25.3189H47.9224L50.3088 28.7536H50.3514V25.3189H50.8713ZM54.7837 29.7422C54.4968 29.7422 54.2496 29.6897 54.0423 29.5845C53.8349 29.4794 53.6751 29.3353 53.5629 29.152C53.4506 28.9688 53.3945 28.7593 53.3945 28.5235C53.3945 28.3416 53.4329 28.1804 53.5096 28.0398C53.5877 27.8978 53.695 27.7664 53.8313 27.6456C53.9691 27.5235 54.1275 27.4013 54.3065 27.2791L54.9371 26.8104C55.0607 26.7294 55.1594 26.6428 55.2333 26.5505C55.3086 26.4581 55.3462 26.3374 55.3462 26.1882C55.3462 26.0774 55.2972 25.9702 55.1992 25.8665C55.1026 25.7628 54.9755 25.711 54.8178 25.711C54.707 25.711 54.609 25.7394 54.5238 25.7962C54.44 25.8516 54.3739 25.9226 54.3256 26.0093C54.2788 26.0945 54.2553 26.1826 54.2553 26.2735C54.2553 26.3757 54.283 26.4794 54.3384 26.5845C54.3952 26.6882 54.467 26.7948 54.5536 26.9041C54.6417 27.0121 54.7326 27.1229 54.8263 27.2365L56.8292 29.6826H56.2241L54.5707 27.6882C54.4173 27.5036 54.2781 27.336 54.1531 27.1854C54.0281 27.0348 53.9286 26.8864 53.8548 26.7401C53.7809 26.5938 53.744 26.4354 53.744 26.2649C53.744 26.0689 53.7873 25.897 53.8739 25.7493C53.962 25.6002 54.0849 25.4844 54.2425 25.402C54.4016 25.3182 54.5877 25.2763 54.8008 25.2763C55.0195 25.2763 55.2077 25.3189 55.3654 25.4041C55.5231 25.488 55.6445 25.5995 55.7298 25.7387C55.815 25.8764 55.8576 26.0263 55.8576 26.1882C55.8576 26.397 55.8058 26.5782 55.7021 26.7316C55.5984 26.885 55.457 27.0277 55.2781 27.1598L54.4087 27.8076C54.2127 27.9524 54.0799 28.0931 54.0103 28.2294C53.9407 28.3658 53.9059 28.4638 53.9059 28.5235C53.9059 28.6598 53.9414 28.787 54.0124 28.9049C54.0834 29.0228 54.1836 29.1179 54.3129 29.1904C54.4421 29.2628 54.5934 29.299 54.7667 29.299C54.9315 29.299 55.092 29.2642 55.2482 29.1946C55.4045 29.1236 55.5458 29.0213 55.6722 28.8878C55.8001 28.7543 55.9009 28.5938 55.9748 28.4063C56.0501 28.2188 56.0877 28.0078 56.0877 27.7735H56.5735C56.5735 28.0632 56.5401 28.2997 56.4734 28.483C56.4066 28.6662 56.3313 28.8097 56.2475 28.9134C56.1637 29.0171 56.0962 29.0945 56.0451 29.1456C56.0281 29.1669 56.0124 29.1882 55.9982 29.2095C55.984 29.2309 55.9684 29.2522 55.9513 29.2735C55.8107 29.4311 55.6332 29.549 55.4187 29.6272C55.2042 29.7039 54.9925 29.7422 54.7837 29.7422ZM59.1415 29.6826V25.3189H60.6159C60.9569 25.3189 61.2367 25.3772 61.4554 25.4936C61.6742 25.6087 61.8361 25.7671 61.9412 25.9688C62.0463 26.1705 62.0989 26.3999 62.0989 26.657C62.0989 26.9141 62.0463 27.1421 61.9412 27.3409C61.8361 27.5398 61.6749 27.6961 61.4576 27.8097C61.2402 27.9219 60.9625 27.978 60.6245 27.978H59.4313V27.5007H60.6074C60.8404 27.5007 61.0279 27.4666 61.1699 27.3985C61.3134 27.3303 61.4171 27.2337 61.481 27.1087C61.5463 26.9823 61.579 26.8317 61.579 26.657C61.579 26.4823 61.5463 26.3296 61.481 26.1989C61.4157 26.0682 61.3113 25.9674 61.1678 25.8963C61.0243 25.8239 60.8347 25.7877 60.5989 25.7877H59.6699V29.6826H59.1415ZM61.1955 27.7223L62.2694 29.6826H61.6557L60.5989 27.7223H61.1955ZM62.9794 29.6826V25.3189H65.6129V25.7877H63.5078V27.2621H65.4766V27.7309H63.5078V29.2138H65.647V29.6826H62.9794ZM68.9517 26.4098C68.9261 26.1939 68.8224 26.0263 68.6406 25.907C68.4588 25.7877 68.2358 25.728 67.9716 25.728C67.7784 25.728 67.6094 25.7593 67.4645 25.8218C67.321 25.8843 67.2088 25.9702 67.1278 26.0796C67.0483 26.1889 67.0085 26.3132 67.0085 26.4524C67.0085 26.5689 67.0362 26.6691 67.0916 26.7529C67.1484 26.8353 67.2209 26.9041 67.3089 26.9595C67.397 27.0135 67.4893 27.0583 67.5859 27.0938C67.6825 27.1279 67.7713 27.1556 67.8523 27.1769L68.2954 27.2962C68.4091 27.326 68.5355 27.3672 68.6747 27.4198C68.8153 27.4723 68.9496 27.5441 69.0774 27.635C69.2067 27.7245 69.3132 27.8395 69.397 27.9801C69.4808 28.1208 69.5227 28.2934 69.5227 28.4979C69.5227 28.7337 69.4609 28.9468 69.3374 29.1371C69.2152 29.3274 69.0362 29.4787 68.8004 29.5909C68.566 29.7032 68.2812 29.7593 67.946 29.7593C67.6335 29.7593 67.3629 29.7088 67.1342 29.608C66.907 29.5071 66.728 29.3665 66.5973 29.1861C66.468 29.0057 66.3949 28.7962 66.3778 28.5576H66.9233C66.9375 28.7223 66.9929 28.8587 67.0895 28.9666C67.1875 29.0732 67.3111 29.1527 67.4602 29.2053C67.6108 29.2564 67.7727 29.282 67.946 29.282C68.1477 29.282 68.3288 29.2493 68.4893 29.184C68.6499 29.1172 68.777 29.0249 68.8707 28.907C68.9645 28.7877 69.0114 28.6485 69.0114 28.4894C69.0114 28.3445 68.9709 28.2266 68.8899 28.1357C68.8089 28.0448 68.7024 27.9709 68.5703 27.9141C68.4382 27.8573 68.2954 27.8076 68.142 27.7649L67.6051 27.6115C67.2642 27.5135 66.9943 27.3736 66.7954 27.1918C66.5966 27.01 66.4972 26.772 66.4972 26.478C66.4972 26.2337 66.5632 26.0206 66.6953 25.8388C66.8288 25.6556 67.0078 25.5135 67.2322 25.4127C67.4581 25.3104 67.7102 25.2593 67.9886 25.2593C68.2699 25.2593 68.5199 25.3097 68.7386 25.4105C68.9574 25.51 69.1307 25.6463 69.2585 25.8196C69.3878 25.9929 69.456 26.1897 69.4631 26.4098H68.9517ZM70.1529 25.7877V25.3189H73.4256V25.7877H72.0534V29.6826H71.525V25.7877H70.1529ZM77.7413 27.5007C77.7413 27.961 77.6582 28.3587 77.492 28.6939C77.3258 29.0291 77.0978 29.2877 76.8081 29.4695C76.5183 29.6513 76.1873 29.7422 75.8152 29.7422C75.443 29.7422 75.112 29.6513 74.8223 29.4695C74.5325 29.2877 74.3045 29.0291 74.1383 28.6939C73.9721 28.3587 73.889 27.961 73.889 27.5007C73.889 27.0405 73.9721 26.6428 74.1383 26.3076C74.3045 25.9723 74.5325 25.7138 74.8223 25.532C75.112 25.3502 75.443 25.2593 75.8152 25.2593C76.1873 25.2593 76.5183 25.3502 76.8081 25.532C77.0978 25.7138 77.3258 25.9723 77.492 26.3076C77.6582 26.6428 77.7413 27.0405 77.7413 27.5007ZM77.2299 27.5007C77.2299 27.1229 77.1667 26.804 77.0403 26.5441C76.9153 26.2841 76.7456 26.0874 76.5311 25.9539C76.318 25.8203 76.0794 25.7536 75.8152 25.7536C75.551 25.7536 75.3116 25.8203 75.0971 25.9539C74.884 26.0874 74.7143 26.2841 74.5879 26.5441C74.4629 26.804 74.4004 27.1229 74.4004 27.5007C74.4004 27.8786 74.4629 28.1975 74.5879 28.4574C74.7143 28.7174 74.884 28.9141 75.0971 29.0476C75.3116 29.1811 75.551 29.2479 75.8152 29.2479C76.0794 29.2479 76.318 29.1811 76.5311 29.0476C76.7456 28.9141 76.9153 28.7174 77.0403 28.4574C77.1667 28.1975 77.2299 27.8786 77.2299 27.5007ZM78.6298 29.6826V25.3189H80.1042C80.4451 25.3189 80.725 25.3772 80.9437 25.4936C81.1625 25.6087 81.3244 25.7671 81.4295 25.9688C81.5346 26.1705 81.5872 26.3999 81.5872 26.657C81.5872 26.9141 81.5346 27.1421 81.4295 27.3409C81.3244 27.5398 81.1632 27.6961 80.9458 27.8097C80.7285 27.9219 80.4508 27.978 80.1127 27.978H78.9196V27.5007H80.0957C80.3287 27.5007 80.5162 27.4666 80.6582 27.3985C80.8017 27.3303 80.9054 27.2337 80.9693 27.1087C81.0346 26.9823 81.0673 26.8317 81.0673 26.657C81.0673 26.4823 81.0346 26.3296 80.9693 26.1989C80.9039 26.0682 80.7995 25.9674 80.6561 25.8963C80.5126 25.8239 80.323 25.7877 80.0872 25.7877H79.1582V29.6826H78.6298ZM80.6838 27.7223L81.7576 29.6826H81.144L80.0872 27.7223H80.6838ZM82.6467 29.6826H82.0927L83.695 25.3189H84.2404L85.8427 29.6826H85.2887L83.9847 26.0093H83.9506L82.6467 29.6826ZM82.8512 27.978H85.0842V28.4468H82.8512V27.978ZM85.774 25.7877V25.3189H89.0467V25.7877H87.6745V29.6826H87.1461V25.7877H85.774ZM90.3906 25.3189V29.6826H89.8622V25.3189H90.3906ZM95.1319 27.5007C95.1319 27.961 95.0488 28.3587 94.8826 28.6939C94.7164 29.0291 94.4885 29.2877 94.1987 29.4695C93.9089 29.6513 93.5779 29.7422 93.2058 29.7422C92.8336 29.7422 92.5027 29.6513 92.2129 29.4695C91.9231 29.2877 91.6951 29.0291 91.5289 28.6939C91.3627 28.3587 91.2796 27.961 91.2796 27.5007C91.2796 27.0405 91.3627 26.6428 91.5289 26.3076C91.6951 25.9723 91.9231 25.7138 92.2129 25.532C92.5027 25.3502 92.8336 25.2593 93.2058 25.2593C93.5779 25.2593 93.9089 25.3502 94.1987 25.532C94.4885 25.7138 94.7164 25.9723 94.8826 26.3076C95.0488 26.6428 95.1319 27.0405 95.1319 27.5007ZM94.6206 27.5007C94.6206 27.1229 94.5573 26.804 94.4309 26.5441C94.3059 26.2841 94.1362 26.0874 93.9217 25.9539C93.7086 25.8203 93.47 25.7536 93.2058 25.7536C92.9416 25.7536 92.7022 25.8203 92.4877 25.9539C92.2747 26.0874 92.1049 26.2841 91.9785 26.5441C91.8535 26.804 91.791 27.1229 91.791 27.5007C91.791 27.8786 91.8535 28.1975 91.9785 28.4574C92.1049 28.7174 92.2747 28.9141 92.4877 29.0476C92.7022 29.1811 92.9416 29.2479 93.2058 29.2479C93.47 29.2479 93.7086 29.1811 93.9217 29.0476C94.1362 28.9141 94.3059 28.7174 94.4309 28.4574C94.5573 28.1975 94.6206 27.8786 94.6206 27.5007ZM99.4806 25.3189V29.6826H98.9693L96.5914 26.2564H96.5488V29.6826H96.0204V25.3189H96.5318L98.9181 28.7536H98.9608V25.3189H99.4806Z" fill="#F47521"/>
<path d="M12.384 9.53466L12.9093 8.40775H7.271L6.64062 9.53466H12.384Z" fill="#F47421"/>
<path d="M4.18956 13.9015L3.20898 15.6447H20.8944L20.6142 13.9015H4.18956Z" fill="#F47421"/>
<path d="M11.0011 12.4928L11.5964 11.2074H5.69546L4.97754 12.4928H11.0011Z" fill="#F47421"/>
<path d="M8.81151 5.67853L8.30371 6.57654H13.7669L14.1872 5.67853H8.81151Z" fill="#F47421"/>
<path d="M18.5297 0.748276L18.4772 0.360901H11.7882L11.5781 0.748276H18.5297Z" fill="#F47421"/>
<path d="M21.0512 16.6835H2.61285L1.49219 18.7084H8.05856L8.65391 17.423H15.2728L15.3779 18.7084H21.3664L21.0512 16.6835Z" fill="#F47421"/>
<path d="M1.08986 19.3951L0.336914 20.7686H7.07839L7.72627 19.3951H1.08986Z" fill="#F47421"/>
<path d="M15.4482 19.3951L15.5533 20.7686H21.6994L21.4893 19.3951H15.4482Z" fill="#F47421"/>
<path d="M10.3529 2.93167L9.9502 3.6536H19.003L18.8805 2.93167H10.3529Z" fill="#F47421"/>
<path d="M14.2578 5.67853L14.3279 6.57654H19.4584L19.3183 5.67853H14.2578Z" fill="#F47421"/>
<path d="M14.7129 11.2074L14.818 12.4928H20.3862L20.1936 11.2074H14.7129Z" fill="#F47421"/>
<path d="M14.4854 8.40775L14.5729 9.53466H19.9311L19.7384 8.40775H14.4854Z" fill="#F47421"/>
<path d="M24.5888 11.2074L24.3262 12.4928H30.6124L30.8925 11.2074H24.5888Z" fill="#F47421"/>
<path d="M24.0289 13.9015L23.6611 15.6447H29.9473L30.3151 13.9015H24.0289Z" fill="#F47421"/>
<path d="M23.0127 18.7084H39.3673L39.7876 16.6835H23.4329L23.0127 18.7084Z" fill="#F47421"/>
<path d="M33.1337 0.748276L33.2038 0.360901H26.8825L26.8125 0.748276H33.1337Z" fill="#F47421"/>
<path d="M26.3402 2.93167L26.1826 3.6536H32.5038L32.6614 2.93167H26.3402Z" fill="#F47421"/>
<path d="M22.8729 19.3951L22.5752 20.7686H38.9473L39.2275 19.3951H22.8729Z" fill="#F47421"/>
<path d="M25.1847 8.40775L24.957 9.53466H31.2432L31.4884 8.40775H25.1847Z" fill="#F47421"/>
<path d="M25.7619 5.67853L25.5693 6.57654H31.8906L32.0832 5.67853H25.7619Z" fill="#F47421"/>
<path d="M52.9383 13.9014C52.5706 14.5881 52.1678 15.1516 51.7301 15.5566C51.695 15.5918 51.66 15.6094 51.625 15.6446H58.5416C58.8393 15.0988 59.0669 14.5177 59.2595 13.9014H52.9383Z" fill="#F47421"/>
<path d="M40.4009 15.6446H47.1074C47.0548 15.5918 46.9848 15.5214 46.9323 15.4509C46.5821 15.0107 46.3369 14.4825 46.2143 13.9014H40.0332C40.1032 14.5177 40.2258 15.0988 40.4009 15.6446Z" fill="#F47421"/>
<path d="M40.5936 8.40775C40.471 8.77751 40.3835 9.16489 40.2959 9.53466H46.6697C46.7397 9.28815 46.8273 9.04163 46.9148 8.81273C46.9673 8.67187 47.0199 8.54861 47.0724 8.40775H40.5936Z" fill="#F47421"/>
<path d="M40.8213 16.6835C41.1715 17.423 41.6443 18.0921 42.2221 18.6908H56.1253C56.8257 18.0745 57.4211 17.4054 57.9114 16.6835H40.8213Z" fill="#F47421"/>
<path d="M40.0154 11.2074C39.9803 11.63 39.9453 12.0702 39.9453 12.4928H46.1089C46.1265 12.0702 46.179 11.6476 46.249 11.2074H40.0154Z" fill="#F47421"/>
<path d="M55.775 0.748264C54.6193 0.272848 53.2535 0.0263367 51.6951 0.0263367C50.1017 0.0263367 48.6483 0.272848 47.3525 0.748264H55.775Z" fill="#F47421"/>
<path d="M43.0098 19.3951C44.4981 20.5397 46.4943 21.1031 48.9808 21.1031C51.4848 21.1031 53.551 20.5221 55.2145 19.3951H43.0098Z" fill="#F47421"/>
<path d="M43.8323 2.93164C43.5872 3.16054 43.3595 3.40706 43.1494 3.65357H59.2064C59.0488 3.40706 58.8912 3.16054 58.6986 2.93164H43.8323Z" fill="#F47421"/>
<path d="M48.1405 6.57651C48.4206 6.24195 48.7008 5.94262 49.016 5.69611L49.0335 5.6785H41.7317C41.5916 5.94262 41.4515 6.20674 41.329 6.48847C41.3115 6.52368 41.3115 6.54129 41.2939 6.57651H48.1405Z" fill="#F47421"/>
<path d="M53.9531 5.6785C54.1632 5.92501 54.3208 6.22435 54.4259 6.57651H60.2568C60.2043 6.25956 60.1518 5.96023 60.0642 5.6785H53.9531Z" fill="#F47421"/>
<path d="M75.6481 8.63665C75.6481 8.88316 75.6131 9.1825 75.5605 9.55226H81.7592C81.7767 9.25293 81.7942 8.95359 81.7942 8.67186C81.7942 8.58382 81.7942 8.51339 81.7942 8.42535H75.6481C75.6481 8.47818 75.6481 8.54861 75.6481 8.63665Z" fill="#F47421"/>
<path d="M61.3252 16.6835C61.6754 17.4406 62.1482 18.1098 62.7435 18.6908H77.067C77.8374 18.1098 78.5028 17.423 79.0807 16.6835H61.3252Z" fill="#F47421"/>
<path d="M67.2439 9.53466C67.2614 9.44662 67.2965 9.35858 67.314 9.27054C67.4015 8.9712 67.5066 8.68947 67.6117 8.40775H61.2029C61.1854 8.47818 61.1503 8.54861 61.1328 8.61904C61.0453 8.91838 60.9577 9.23532 60.8877 9.53466H67.2439Z" fill="#F47421"/>
<path d="M68.6265 6.57651C68.8016 6.3476 68.9767 6.13631 69.1868 5.92501C69.2744 5.83697 69.3619 5.74893 69.4495 5.6785H62.4454C62.2703 5.97783 62.1127 6.27717 61.9551 6.57651H68.6265Z" fill="#F47421"/>
<path d="M75.1753 11.2074C75.1402 11.3483 75.1052 11.4715 75.0702 11.6124C74.9827 11.9117 74.8951 12.2111 74.79 12.4928H81.2338C81.2864 12.2815 81.3564 12.0702 81.3914 11.8589C81.444 11.63 81.479 11.4187 81.5315 11.2074H75.1753Z" fill="#F47421"/>
<path d="M74.1075 13.9014C73.8449 14.3416 73.5472 14.729 73.2145 15.0988C73.0219 15.3101 72.8293 15.4861 72.6191 15.6446H79.8159C79.8159 15.627 79.8334 15.627 79.8334 15.6094C80.1836 15.0283 80.4638 14.4649 80.7089 13.9014H74.1075Z" fill="#F47421"/>
<path d="M67.8042 15.6446C67.7341 15.5742 67.6641 15.5214 67.6115 15.4509C67.2263 15.0107 66.9637 14.5001 66.8236 13.919H60.6074C60.6775 14.5353 60.7825 15.1164 60.9401 15.6622H67.8042V15.6446Z" fill="#F47421"/>
<path d="M77.0844 0.748264C75.8937 0.272848 74.4754 0.0263367 72.8119 0.0263367C71.6212 0.0263367 70.4655 0.149593 69.3274 0.396105C68.9246 0.484145 68.5219 0.607401 68.1191 0.765873H77.0844V0.748264Z" fill="#F47421"/>
<path d="M63.584 19.3951C65.1424 20.5397 67.2086 21.1031 69.7476 21.1031C71.0084 21.1031 72.1991 20.9446 73.3372 20.6453C74.2128 20.4164 75.1408 19.9938 76.0864 19.3775H63.584V19.3951Z" fill="#F47421"/>
<path d="M66.7007 12.4928C66.7183 12.0878 66.7708 11.6652 66.8408 11.2074H60.6071C60.5546 11.63 60.5371 12.0526 60.5371 12.4928H66.7007Z" fill="#F47421"/>
<path d="M64.6173 2.93164C64.3722 3.16054 64.127 3.40706 63.8994 3.65357H80.4642C80.3066 3.40706 80.149 3.16054 79.9739 2.93164H64.6173Z" fill="#F47421"/>
<path d="M74.668 5.6785C74.9131 5.92501 75.1232 6.22435 75.2808 6.57651H81.6021C81.5495 6.27717 81.462 5.97783 81.3744 5.6785H74.668Z" fill="#F47421"/>
<path d="M82.8814 13.9015L82.5137 15.6447H88.7999L89.1501 13.9015H82.8814Z" fill="#F47421"/>
<path d="M99.7431 16.6835H93.1768C93.4744 17.3702 93.7546 18.0393 93.9997 18.6908H100.619C100.321 17.9689 100.023 17.2998 99.7431 16.6835Z" fill="#F47421"/>
<path d="M97.0642 6.17155C97.0642 6.31242 97.0467 6.43567 97.0117 6.57654H102.983C103.018 6.29481 103.035 6.01308 103.035 5.73135C103.035 5.71374 103.035 5.69614 103.035 5.67853H97.0117C97.0467 5.81939 97.0642 5.99547 97.0642 6.17155Z" fill="#F47421"/>
<path d="M91.8818 13.9015C92.127 14.3417 92.4071 14.9227 92.7223 15.6447H99.2362C98.9035 14.9755 98.5708 14.3945 98.2556 13.9015H91.8818Z" fill="#F47421"/>
<path d="M83.4414 11.2074L83.1787 12.4928H89.4474V12.4752H89.7801C89.9027 12.4752 90.0077 12.4752 90.1128 12.4928H97.187C97.0819 12.3872 96.9768 12.2815 96.8718 12.1935C98.0975 11.9998 99.1306 11.6828 99.9711 11.2074H83.4414Z" fill="#F47421"/>
<path d="M88.1514 18.7084L88.5717 16.6835H82.2855L81.8652 18.7084H88.1514Z" fill="#F47421"/>
<path d="M84.6145 5.67853L84.4219 6.57654H90.7081L90.9007 5.67853H84.6145Z" fill="#F47421"/>
<path d="M95.2262 8.40775C94.5959 8.56622 93.3526 8.65426 91.4615 8.65426H90.2708L90.3233 8.40775H84.0371L83.792 9.53466H101.845C102.108 9.1825 102.318 8.79512 102.493 8.40775H95.2262Z" fill="#F47421"/>
<path d="M94.2803 19.3951C94.4729 19.8706 94.648 20.3108 94.8056 20.7686H101.442C101.267 20.2931 101.092 19.8353 100.917 19.3951H94.2803Z" fill="#F47421"/>
<path d="M81.7079 19.3951L81.4277 20.7686H87.7139L88.0116 19.3951H81.7079Z" fill="#F47421"/>
<path d="M85.1927 2.93167L85.0352 3.6536H102.668C102.58 3.40709 102.458 3.16058 102.335 2.93167H85.1927Z" fill="#F47421"/>
<path d="M99.8133 0.748277C99.0954 0.501765 98.2549 0.37851 97.2743 0.37851H85.735L85.6475 0.748277H99.8133Z" fill="#F47421"/>
</g>
<defs>
<clipPath id="clip0_351_11218">
<rect width="103" height="32" fill="white"/>
</clipPath>
</defs>
</svg>
