<svg width="178" height="62" viewBox="0 0 178 62" fill="none" xmlns="http://www.w3.org/2000/svg">
<g clip-path="url(#clip0_402_3858)">
<path d="M44.3246 54.0074H43.62C43.5784 53.8047 43.5054 53.6267 43.4013 53.4733C43.299 53.3199 43.174 53.1911 43.0263 53.0869C42.8804 52.9809 42.7185 52.9013 42.5405 52.8483C42.3625 52.7953 42.1768 52.7688 41.9837 52.7688C41.6314 52.7688 41.3123 52.8578 41.0263 53.0358C40.7422 53.2138 40.5159 53.4762 40.3473 53.8227C40.1806 54.1693 40.0973 54.5945 40.0973 55.0983C40.0973 55.6021 40.1806 56.0273 40.3473 56.3739C40.5159 56.7205 40.7422 56.9828 41.0263 57.1608C41.3123 57.3388 41.6314 57.4279 41.9837 57.4279C42.1768 57.4279 42.3625 57.4013 42.5405 57.3483C42.7185 57.2953 42.8804 57.2167 43.0263 57.1125C43.174 57.0065 43.299 56.8767 43.4013 56.7233C43.5054 56.568 43.5784 56.39 43.62 56.1892H44.3246C44.2715 56.4866 44.175 56.7527 44.0348 56.9875C43.8946 57.2224 43.7204 57.4222 43.5121 57.5869C43.3037 57.7498 43.0698 57.8739 42.8104 57.9591C42.5528 58.0443 42.2772 58.0869 41.9837 58.0869C41.4875 58.0869 41.0462 57.9657 40.6598 57.7233C40.2734 57.4809 39.9695 57.1362 39.7479 56.6892C39.5263 56.2422 39.4155 55.7119 39.4155 55.0983C39.4155 54.4847 39.5263 53.9544 39.7479 53.5074C39.9695 53.0604 40.2734 52.7157 40.6598 52.4733C41.0462 52.2309 41.4875 52.1097 41.9837 52.1097C42.2772 52.1097 42.5528 52.1523 42.8104 52.2375C43.0698 52.3227 43.3037 52.4477 43.5121 52.6125C43.7204 52.7754 43.8946 52.9743 44.0348 53.2091C44.175 53.4421 44.2715 53.7082 44.3246 54.0074ZM50.3722 55.0983C50.3722 55.7119 50.2614 56.2422 50.0398 56.6892C49.8182 57.1362 49.5142 57.4809 49.1278 57.7233C48.7415 57.9657 48.3002 58.0869 47.804 58.0869C47.3078 58.0869 46.8665 57.9657 46.4801 57.7233C46.0937 57.4809 45.7898 57.1362 45.5682 56.6892C45.3466 56.2422 45.2358 55.7119 45.2358 55.0983C45.2358 54.4847 45.3466 53.9544 45.5682 53.5074C45.7898 53.0604 46.0937 52.7157 46.4801 52.4733C46.8665 52.2309 47.3078 52.1097 47.804 52.1097C48.3002 52.1097 48.7415 52.2309 49.1278 52.4733C49.5142 52.7157 49.8182 53.0604 50.0398 53.5074C50.2614 53.9544 50.3722 54.4847 50.3722 55.0983ZM49.6903 55.0983C49.6903 54.5945 49.6061 54.1693 49.4375 53.8227C49.2708 53.4762 49.0445 53.2138 48.7585 53.0358C48.4744 52.8578 48.1562 52.7688 47.804 52.7688C47.4517 52.7688 47.1326 52.8578 46.8466 53.0358C46.5625 53.2138 46.3362 53.4762 46.1676 53.8227C46.0009 54.1693 45.9176 54.5945 45.9176 55.0983C45.9176 55.6021 46.0009 56.0273 46.1676 56.3739C46.3362 56.7205 46.5625 56.9828 46.8466 57.1608C47.1326 57.3388 47.4517 57.4279 47.804 57.4279C48.1562 57.4279 48.4744 57.3388 48.7585 57.1608C49.0445 56.9828 49.2708 56.7205 49.4375 56.3739C49.6061 56.0273 49.6903 55.6021 49.6903 55.0983ZM56.1705 52.1892V58.0074H55.4886L52.3182 53.4392H52.2614V58.0074H51.5568V52.1892H52.2386L55.4205 56.7688H55.4773V52.1892H56.1705ZM60.7621 53.6438C60.728 53.3559 60.5897 53.1324 60.3473 52.9733C60.1049 52.8142 59.8075 52.7347 59.4553 52.7347C59.1977 52.7347 58.9723 52.7763 58.7791 52.8597C58.5878 52.943 58.4382 53.0576 58.3303 53.2034C58.2242 53.3493 58.1712 53.515 58.1712 53.7006C58.1712 53.8559 58.2081 53.9894 58.282 54.1012C58.3577 54.211 58.4543 54.3029 58.5717 54.3767C58.6892 54.4487 58.8123 54.5083 58.9411 54.5557C59.0698 54.6012 59.1882 54.6381 59.2962 54.6665L59.8871 54.8256C60.0386 54.8654 60.2071 54.9203 60.3928 54.9904C60.5803 55.0604 60.7592 55.1561 60.9297 55.2773C61.102 55.3966 61.2441 55.55 61.3558 55.7375C61.4676 55.925 61.5234 56.1551 61.5234 56.4279C61.5234 56.7422 61.4411 57.0263 61.2763 57.2801C61.1134 57.5339 60.8748 57.7356 60.5604 57.8852C60.2479 58.0349 59.8681 58.1097 59.4212 58.1097C59.0045 58.1097 58.6437 58.0424 58.3388 57.908C58.0357 57.7735 57.7971 57.586 57.6229 57.3455C57.4505 57.1049 57.353 56.8256 57.3303 56.5074H58.0575C58.0765 56.7271 58.1503 56.9089 58.2791 57.0529C58.4098 57.1949 58.5746 57.301 58.7734 57.371C58.9742 57.4392 59.1901 57.4733 59.4212 57.4733C59.6901 57.4733 59.9316 57.4297 60.1456 57.3426C60.3596 57.2536 60.5291 57.1305 60.6541 56.9733C60.7791 56.8142 60.8416 56.6286 60.8416 56.4165C60.8416 56.2233 60.7876 56.0661 60.6797 55.9449C60.5717 55.8237 60.4297 55.7252 60.2536 55.6494C60.0774 55.5737 59.8871 55.5074 59.6825 55.4506L58.9666 55.246C58.5121 55.1154 58.1522 54.9288 57.8871 54.6864C57.6219 54.444 57.4893 54.1267 57.4893 53.7347C57.4893 53.4089 57.5774 53.1248 57.7536 52.8824C57.9316 52.6381 58.1702 52.4487 58.4695 52.3142C58.7706 52.1779 59.1068 52.1097 59.478 52.1097C59.853 52.1097 60.1863 52.1769 60.478 52.3114C60.7696 52.444 61.0007 52.6258 61.1712 52.8568C61.3435 53.0879 61.4344 53.3502 61.4439 53.6438H60.7621ZM62.3636 52.8142V52.1892H66.7273V52.8142H64.8977V58.0074H64.1932V52.8142H62.3636ZM67.8146 58.0074V52.1892H69.7805C70.2351 52.1892 70.6082 52.2669 70.8999 52.4222C71.1915 52.5756 71.4074 52.7868 71.5476 53.0557C71.6877 53.3246 71.7578 53.6305 71.7578 53.9733C71.7578 54.3161 71.6877 54.6201 71.5476 54.8852C71.4074 55.1504 71.1925 55.3587 70.9027 55.5102C70.6129 55.6599 70.2427 55.7347 69.7919 55.7347H68.201V55.0983H69.7692C70.0798 55.0983 70.3298 55.0529 70.5192 54.9619C70.7105 54.871 70.8487 54.7422 70.9339 54.5756C71.0211 54.407 71.0646 54.2063 71.0646 53.9733C71.0646 53.7404 71.0211 53.5368 70.9339 53.3625C70.8468 53.1883 70.7076 53.0538 70.5163 52.9591C70.325 52.8625 70.0722 52.8142 69.7578 52.8142H68.5192V58.0074H67.8146ZM70.5533 55.3938L71.9851 58.0074H71.1669L69.7578 55.3938H70.5533ZM76.75 52.1892H77.4545V56.0415C77.4545 56.4392 77.3608 56.7943 77.1733 57.1068C76.9877 57.4174 76.7254 57.6627 76.3864 57.8426C76.0473 58.0207 75.6496 58.1097 75.1932 58.1097C74.7367 58.1097 74.339 58.0207 74 57.8426C73.661 57.6627 73.3977 57.4174 73.2102 57.1068C73.0246 56.7943 72.9318 56.4392 72.9318 56.0415V52.1892H73.6364V55.9847C73.6364 56.2688 73.6989 56.5216 73.8239 56.7432C73.9489 56.9629 74.1269 57.1362 74.358 57.2631C74.5909 57.3881 74.8693 57.4506 75.1932 57.4506C75.517 57.4506 75.7955 57.3881 76.0284 57.2631C76.2614 57.1362 76.4394 56.9629 76.5625 56.7432C76.6875 56.5216 76.75 56.2688 76.75 55.9847V52.1892ZM83.5433 54.0074H82.8388C82.7971 53.8047 82.7242 53.6267 82.62 53.4733C82.5178 53.3199 82.3928 53.1911 82.245 53.0869C82.0992 52.9809 81.9373 52.9013 81.7592 52.8483C81.5812 52.7953 81.3956 52.7688 81.2024 52.7688C80.8501 52.7688 80.531 52.8578 80.245 53.0358C79.9609 53.2138 79.7346 53.4762 79.5661 53.8227C79.3994 54.1693 79.3161 54.5945 79.3161 55.0983C79.3161 55.6021 79.3994 56.0273 79.5661 56.3739C79.7346 56.7205 79.9609 56.9828 80.245 57.1608C80.531 57.3388 80.8501 57.4279 81.2024 57.4279C81.3956 57.4279 81.5812 57.4013 81.7592 57.3483C81.9373 57.2953 82.0992 57.2167 82.245 57.1125C82.3928 57.0065 82.5178 56.8767 82.62 56.7233C82.7242 56.568 82.7971 56.39 82.8388 56.1892H83.5433C83.4903 56.4866 83.3937 56.7527 83.2536 56.9875C83.1134 57.2224 82.9392 57.4222 82.7308 57.5869C82.5225 57.7498 82.2886 57.8739 82.0291 57.9591C81.7715 58.0443 81.496 58.0869 81.2024 58.0869C80.7062 58.0869 80.2649 57.9657 79.8786 57.7233C79.4922 57.4809 79.1882 57.1362 78.9666 56.6892C78.745 56.2422 78.6342 55.7119 78.6342 55.0983C78.6342 54.4847 78.745 53.9544 78.9666 53.5074C79.1882 53.0604 79.4922 52.7157 79.8786 52.4733C80.2649 52.2309 80.7062 52.1097 81.2024 52.1097C81.496 52.1097 81.7715 52.1523 82.0291 52.2375C82.2886 52.3227 82.5225 52.4477 82.7308 52.6125C82.9392 52.7754 83.1134 52.9743 83.2536 53.2091C83.3937 53.4421 83.4903 53.7082 83.5433 54.0074ZM84.3636 52.8142V52.1892H88.7273V52.8142H86.8977V58.0074H86.1932V52.8142H84.3636ZM90.5192 52.1892V58.0074H89.8146V52.1892H90.5192ZM96.8409 55.0983C96.8409 55.7119 96.7301 56.2422 96.5085 56.6892C96.2869 57.1362 95.983 57.4809 95.5966 57.7233C95.2102 57.9657 94.7689 58.0869 94.2727 58.0869C93.7765 58.0869 93.3352 57.9657 92.9489 57.7233C92.5625 57.4809 92.2585 57.1362 92.0369 56.6892C91.8153 56.2422 91.7045 55.7119 91.7045 55.0983C91.7045 54.4847 91.8153 53.9544 92.0369 53.5074C92.2585 53.0604 92.5625 52.7157 92.9489 52.4733C93.3352 52.2309 93.7765 52.1097 94.2727 52.1097C94.7689 52.1097 95.2102 52.2309 95.5966 52.4733C95.983 52.7157 96.2869 53.0604 96.5085 53.5074C96.7301 53.9544 96.8409 54.4847 96.8409 55.0983ZM96.1591 55.0983C96.1591 54.5945 96.0748 54.1693 95.9062 53.8227C95.7396 53.4762 95.5133 53.2138 95.2273 53.0358C94.9432 52.8578 94.625 52.7688 94.2727 52.7688C93.9205 52.7688 93.6013 52.8578 93.3153 53.0358C93.0312 53.2138 92.8049 53.4762 92.6364 53.8227C92.4697 54.1693 92.3864 54.5945 92.3864 55.0983C92.3864 55.6021 92.4697 56.0273 92.6364 56.3739C92.8049 56.7205 93.0312 56.9828 93.3153 57.1608C93.6013 57.3388 93.9205 57.4279 94.2727 57.4279C94.625 57.4279 94.9432 57.3388 95.2273 57.1608C95.5133 56.9828 95.7396 56.7205 95.9062 56.3739C96.0748 56.0273 96.1591 55.6021 96.1591 55.0983ZM102.639 52.1892V58.0074H101.957L98.7869 53.4392H98.7301V58.0074H98.0256V52.1892H98.7074L101.889 56.7688H101.946V52.1892H102.639ZM107.856 58.0869C107.473 58.0869 107.144 58.0169 106.867 57.8767C106.591 57.7366 106.378 57.5443 106.228 57.3C106.078 57.0557 106.004 56.7763 106.004 56.4619C106.004 56.2195 106.055 56.0046 106.157 55.8171C106.261 55.6277 106.404 55.4525 106.586 55.2915C106.77 55.1286 106.981 54.9657 107.219 54.8029L108.06 54.1779C108.225 54.0699 108.357 53.9544 108.455 53.8313C108.556 53.7082 108.606 53.5472 108.606 53.3483C108.606 53.2006 108.54 53.0576 108.41 52.9193C108.281 52.7811 108.112 52.7119 107.901 52.7119C107.754 52.7119 107.623 52.7498 107.509 52.8256C107.397 52.8994 107.309 52.9941 107.245 53.1097C107.183 53.2233 107.151 53.3407 107.151 53.4619C107.151 53.5983 107.188 53.7366 107.262 53.8767C107.338 54.015 107.433 54.157 107.549 54.3029C107.666 54.4468 107.788 54.5945 107.913 54.746L110.583 58.0074H109.776L107.572 55.3483C107.367 55.1021 107.182 54.8786 107.015 54.6779C106.848 54.4771 106.716 54.2792 106.617 54.0841C106.519 53.889 106.469 53.6779 106.469 53.4506C106.469 53.1892 106.527 52.9601 106.643 52.7631C106.76 52.5642 106.924 52.4099 107.134 52.3C107.346 52.1883 107.594 52.1324 107.879 52.1324C108.17 52.1324 108.421 52.1892 108.631 52.3029C108.842 52.4146 109.004 52.5633 109.117 52.7489C109.231 52.9326 109.288 53.1324 109.288 53.3483C109.288 53.6267 109.219 53.8682 109.08 54.0727C108.942 54.2773 108.754 54.4676 108.515 54.6438L107.356 55.5074C107.094 55.7006 106.917 55.8881 106.825 56.0699C106.732 56.2517 106.685 56.3824 106.685 56.4619C106.685 56.6438 106.733 56.8133 106.827 56.9705C106.922 57.1277 107.056 57.2546 107.228 57.3512C107.4 57.4477 107.602 57.496 107.833 57.496C108.053 57.496 108.267 57.4496 108.475 57.3568C108.683 57.2621 108.872 57.1258 109.04 56.9477C109.211 56.7697 109.345 56.5557 109.444 56.3057C109.544 56.0557 109.594 55.7744 109.594 55.4619H110.242C110.242 55.8483 110.198 56.1637 110.109 56.408C110.02 56.6523 109.919 56.8436 109.808 56.9818C109.696 57.1201 109.606 57.2233 109.538 57.2915C109.515 57.3199 109.494 57.3483 109.475 57.3767C109.456 57.4051 109.435 57.4335 109.413 57.4619C109.225 57.6722 108.988 57.8294 108.702 57.9335C108.416 58.0358 108.134 58.0869 107.856 58.0869ZM113.666 58.0074V52.1892H115.632C116.087 52.1892 116.46 52.2669 116.751 52.4222C117.043 52.5756 117.259 52.7868 117.399 53.0557C117.539 53.3246 117.609 53.6305 117.609 53.9733C117.609 54.3161 117.539 54.6201 117.399 54.8852C117.259 55.1504 117.044 55.3587 116.754 55.5102C116.464 55.6599 116.094 55.7347 115.643 55.7347H114.053V55.0983H115.621C115.931 55.0983 116.181 55.0529 116.371 54.9619C116.562 54.871 116.7 54.7422 116.786 54.5756C116.873 54.407 116.916 54.2063 116.916 53.9733C116.916 53.7404 116.873 53.5368 116.786 53.3625C116.698 53.1883 116.559 53.0538 116.368 52.9591C116.177 52.8625 115.924 52.8142 115.609 52.8142H114.371V58.0074H113.666ZM116.405 55.3938L117.837 58.0074H117.018L115.609 55.3938H116.405ZM118.783 58.0074V52.1892H122.295V52.8142H119.488V54.7801H122.113V55.4051H119.488V57.3824H122.34V58.0074H118.783ZM126.746 53.6438C126.712 53.3559 126.574 53.1324 126.332 52.9733C126.089 52.8142 125.792 52.7347 125.44 52.7347C125.182 52.7347 124.957 52.7763 124.763 52.8597C124.572 52.943 124.423 53.0576 124.315 53.2034C124.209 53.3493 124.156 53.515 124.156 53.7006C124.156 53.8559 124.192 53.9894 124.266 54.1012C124.342 54.211 124.439 54.3029 124.556 54.3767C124.674 54.4487 124.797 54.5083 124.925 54.5557C125.054 54.6012 125.173 54.6381 125.281 54.6665L125.871 54.8256C126.023 54.8654 126.192 54.9203 126.377 54.9904C126.565 55.0604 126.744 55.1561 126.914 55.2773C127.086 55.3966 127.228 55.55 127.34 55.7375C127.452 55.925 127.508 56.1551 127.508 56.4279C127.508 56.7422 127.425 57.0263 127.261 57.2801C127.098 57.5339 126.859 57.7356 126.545 57.8852C126.232 58.0349 125.853 58.1097 125.406 58.1097C124.989 58.1097 124.628 58.0424 124.323 57.908C124.02 57.7735 123.781 57.586 123.607 57.3455C123.435 57.1049 123.337 56.8256 123.315 56.5074H124.042C124.061 56.7271 124.135 56.9089 124.263 57.0529C124.394 57.1949 124.559 57.301 124.758 57.371C124.959 57.4392 125.174 57.4733 125.406 57.4733C125.674 57.4733 125.916 57.4297 126.13 57.3426C126.344 57.2536 126.513 57.1305 126.638 56.9733C126.763 56.8142 126.826 56.6286 126.826 56.4165C126.826 56.2233 126.772 56.0661 126.664 55.9449C126.556 55.8237 126.414 55.7252 126.238 55.6494C126.062 55.5737 125.871 55.5074 125.667 55.4506L124.951 55.246C124.496 55.1154 124.137 54.9288 123.871 54.6864C123.606 54.444 123.474 54.1267 123.474 53.7347C123.474 53.4089 123.562 53.1248 123.738 52.8824C123.916 52.6381 124.155 52.4487 124.454 52.3142C124.755 52.1779 125.091 52.1097 125.462 52.1097C125.837 52.1097 126.171 52.1769 126.462 52.3114C126.754 52.444 126.985 52.6258 127.156 52.8568C127.328 53.0879 127.419 53.3502 127.428 53.6438H126.746ZM128.348 52.8142V52.1892H132.712V52.8142H130.882V58.0074H130.178V52.8142H128.348ZM138.466 55.0983C138.466 55.7119 138.355 56.2422 138.134 56.6892C137.912 57.1362 137.608 57.4809 137.222 57.7233C136.835 57.9657 136.394 58.0869 135.898 58.0869C135.402 58.0869 134.96 57.9657 134.574 57.7233C134.187 57.4809 133.884 57.1362 133.662 56.6892C133.44 56.2422 133.33 55.7119 133.33 55.0983C133.33 54.4847 133.44 53.9544 133.662 53.5074C133.884 53.0604 134.187 52.7157 134.574 52.4733C134.96 52.2309 135.402 52.1097 135.898 52.1097C136.394 52.1097 136.835 52.2309 137.222 52.4733C137.608 52.7157 137.912 53.0604 138.134 53.5074C138.355 53.9544 138.466 54.4847 138.466 55.0983ZM137.784 55.0983C137.784 54.5945 137.7 54.1693 137.531 53.8227C137.365 53.4762 137.138 53.2138 136.852 53.0358C136.568 52.8578 136.25 52.7688 135.898 52.7688C135.545 52.7688 135.226 52.8578 134.94 53.0358C134.656 53.2138 134.43 53.4762 134.261 53.8227C134.095 54.1693 134.011 54.5945 134.011 55.0983C134.011 55.6021 134.095 56.0273 134.261 56.3739C134.43 56.7205 134.656 56.9828 134.94 57.1608C135.226 57.3388 135.545 57.4279 135.898 57.4279C136.25 57.4279 136.568 57.3388 136.852 57.1608C137.138 56.9828 137.365 56.7205 137.531 56.3739C137.7 56.0273 137.784 55.6021 137.784 55.0983ZM139.651 58.0074V52.1892H141.616C142.071 52.1892 142.444 52.2669 142.736 52.4222C143.027 52.5756 143.243 52.7868 143.384 53.0557C143.524 53.3246 143.594 53.6305 143.594 53.9733C143.594 54.3161 143.524 54.6201 143.384 54.8852C143.243 55.1504 143.028 55.3587 142.739 55.5102C142.449 55.6599 142.079 55.7347 141.628 55.7347H140.037V55.0983H141.605C141.916 55.0983 142.166 55.0529 142.355 54.9619C142.546 54.871 142.685 54.7422 142.77 54.5756C142.857 54.407 142.901 54.2063 142.901 53.9733C142.901 53.7404 142.857 53.5368 142.77 53.3625C142.683 53.1883 142.544 53.0538 142.352 52.9591C142.161 52.8625 141.908 52.8142 141.594 52.8142H140.355V58.0074H139.651ZM142.389 55.3938L143.821 58.0074H143.003L141.594 55.3938H142.389ZM145.006 58.0074H144.268L146.404 52.1892H147.131L149.268 58.0074H148.529L146.79 53.1097H146.745L145.006 58.0074ZM145.279 55.7347H148.256V56.3597H145.279V55.7347ZM149.176 52.8142V52.1892H153.54V52.8142H151.71V58.0074H151.006V52.8142H149.176ZM155.332 52.1892V58.0074H154.627V52.1892H155.332ZM161.653 55.0983C161.653 55.7119 161.543 56.2422 161.321 56.6892C161.099 57.1362 160.795 57.4809 160.409 57.7233C160.023 57.9657 159.581 58.0869 159.085 58.0869C158.589 58.0869 158.148 57.9657 157.761 57.7233C157.375 57.4809 157.071 57.1362 156.849 56.6892C156.628 56.2422 156.517 55.7119 156.517 55.0983C156.517 54.4847 156.628 53.9544 156.849 53.5074C157.071 53.0604 157.375 52.7157 157.761 52.4733C158.148 52.2309 158.589 52.1097 159.085 52.1097C159.581 52.1097 160.023 52.2309 160.409 52.4733C160.795 52.7157 161.099 53.0604 161.321 53.5074C161.543 53.9544 161.653 54.4847 161.653 55.0983ZM160.972 55.0983C160.972 54.5945 160.887 54.1693 160.719 53.8227C160.552 53.4762 160.326 53.2138 160.04 53.0358C159.756 52.8578 159.437 52.7688 159.085 52.7688C158.733 52.7688 158.414 52.8578 158.128 53.0358C157.844 53.2138 157.617 53.4762 157.449 53.8227C157.282 54.1693 157.199 54.5945 157.199 55.0983C157.199 55.6021 157.282 56.0273 157.449 56.3739C157.617 56.7205 157.844 56.9828 158.128 57.1608C158.414 57.3388 158.733 57.4279 159.085 57.4279C159.437 57.4279 159.756 57.3388 160.04 57.1608C160.326 56.9828 160.552 56.7205 160.719 56.3739C160.887 56.0273 160.972 55.6021 160.972 55.0983ZM167.452 52.1892V58.0074H166.77L163.599 53.4392H163.543V58.0074H162.838V52.1892H163.52L166.702 56.7688H166.759V52.1892H167.452Z" fill="#F47521"/>
<path d="M46.8643 29.6081L47.6245 27.9833H39.465L38.5527 29.6081H46.8643Z" fill="#F47421"/>
<path d="M35.006 35.9044L33.5869 38.4178H59.1805L58.775 35.9044H35.006Z" fill="#F47421"/>
<path d="M44.8625 33.8733L45.7241 32.02H37.1845L36.1455 33.8733H44.8625Z" fill="#F47421"/>
<path d="M41.6948 24.0481L40.96 25.3429H48.8661L49.4742 24.0481H41.6948Z" fill="#F47421"/>
<path d="M55.7593 16.9394L55.6832 16.3808H46.0033L45.6992 16.9394H55.7593Z" fill="#F47421"/>
<path d="M59.4084 39.9158H32.7253L31.1035 42.8354H40.6061L41.4676 40.9821H51.0462L51.1982 42.8354H59.8646L59.4084 39.9158Z" fill="#F47421"/>
<path d="M30.5203 43.8255L29.4307 45.8058H39.1866L40.1242 43.8255H30.5203Z" fill="#F47421"/>
<path d="M51.2988 43.8255L51.4509 45.8058H60.3453L60.0412 43.8255H51.2988Z" fill="#F47421"/>
<path d="M43.9256 20.0875L43.3428 21.1284H56.4436L56.2662 20.0875H43.9256Z" fill="#F47421"/>
<path d="M49.5762 24.0481L49.6775 25.3429H57.1022L56.8995 24.0481H49.5762Z" fill="#F47421"/>
<path d="M50.2354 32.02L50.3874 33.8733H58.4456L58.1668 32.02H50.2354Z" fill="#F47421"/>
<path d="M49.9053 27.9833L50.032 29.6081H57.7861L57.5073 27.9833H49.9053Z" fill="#F47421"/>
<path d="M64.5276 32.02L64.1475 33.8733H73.2446L73.65 32.02H64.5276Z" fill="#F47421"/>
<path d="M63.7167 35.9044L63.1846 38.4178H72.2817L72.8138 35.9044H63.7167Z" fill="#F47421"/>
<path d="M62.2471 42.8354H85.9148L86.5229 39.9158H62.8552L62.2471 42.8354Z" fill="#F47421"/>
<path d="M76.8929 16.9394L76.9943 16.3808H67.8465L67.7451 16.9394H76.8929Z" fill="#F47421"/>
<path d="M67.0611 20.0875L66.833 21.1284H75.9808L76.2089 20.0875H67.0611Z" fill="#F47421"/>
<path d="M62.0441 43.8255L61.6133 45.8058H85.3063L85.7118 43.8255H62.0441Z" fill="#F47421"/>
<path d="M65.389 27.9833L65.0596 29.6081H74.1567L74.5114 27.9833H65.389Z" fill="#F47421"/>
<path d="M66.225 24.0481L65.9463 25.3429H75.0941L75.3728 24.0481H66.225Z" fill="#F47421"/>
<path d="M105.553 35.9044C105.021 36.8945 104.438 37.707 103.804 38.2909C103.754 38.3417 103.703 38.3671 103.652 38.4178H113.662C114.092 37.6308 114.422 36.793 114.701 35.9044H105.553Z" fill="#F47421"/>
<path d="M87.4091 38.4178H97.1144C97.0383 38.3417 96.937 38.2401 96.861 38.1386C96.3542 37.5039 95.9994 36.7422 95.822 35.9044H86.877C86.9783 36.793 87.1557 37.6308 87.4091 38.4178Z" fill="#F47421"/>
<path d="M87.6876 27.9832C87.5102 28.5164 87.3835 29.0749 87.2568 29.6081H96.4806C96.582 29.2527 96.7087 28.8972 96.8354 28.5672C96.9114 28.3641 96.9875 28.1864 97.0635 27.9832H87.6876Z" fill="#F47421"/>
<path d="M88.0166 39.9157C88.5234 40.982 89.2076 41.9468 90.0438 42.81H110.164C111.177 41.9214 112.039 40.9567 112.749 39.9157H88.0166Z" fill="#F47421"/>
<path d="M86.8514 32.02C86.8007 32.6293 86.75 33.264 86.75 33.8733H95.6697C95.6951 33.264 95.7711 32.6547 95.8724 32.02H86.8514Z" fill="#F47421"/>
<path d="M109.657 16.9394C107.985 16.2539 106.008 15.8984 103.753 15.8984C101.447 15.8984 99.3439 16.2539 97.4688 16.9394H109.657Z" fill="#F47421"/>
<path d="M91.1846 43.8255C93.3385 45.4758 96.2273 46.2882 99.8256 46.2882C103.449 46.2882 106.439 45.4504 108.847 43.8255H91.1846Z" fill="#F47421"/>
<path d="M92.376 20.0875C92.0212 20.4175 91.6918 20.773 91.3877 21.1284H114.625C114.397 20.773 114.168 20.4175 113.89 20.0875H92.376Z" fill="#F47421"/>
<path d="M98.6092 25.3429C99.0146 24.8605 99.4201 24.4289 99.8762 24.0735L99.9015 24.0481H89.3347C89.132 24.4289 88.9292 24.8097 88.7518 25.2159C88.7265 25.2667 88.7265 25.2921 88.7012 25.3429H98.6092Z" fill="#F47421"/>
<path d="M107.022 24.0481C107.327 24.4035 107.555 24.8351 107.707 25.3429H116.145C116.069 24.8859 115.993 24.4543 115.866 24.0481H107.022Z" fill="#F47421"/>
<path d="M138.42 28.3133C138.42 28.6687 138.369 29.1003 138.293 29.6335H147.263C147.289 29.2019 147.314 28.7703 147.314 28.3641C147.314 28.2371 147.314 28.1356 147.314 28.0086H138.42C138.42 28.0848 138.42 28.1864 138.42 28.3133Z" fill="#F47421"/>
<path d="M117.691 39.9157C118.198 41.0074 118.882 41.9722 119.744 42.81H140.472C141.587 41.9722 142.55 40.982 143.386 39.9157H117.691Z" fill="#F47421"/>
<path d="M126.256 29.6081C126.281 29.4812 126.332 29.3542 126.357 29.2273C126.484 28.7957 126.636 28.3895 126.788 27.9832H117.514C117.488 28.0848 117.438 28.1864 117.412 28.2879C117.286 28.7195 117.159 29.1765 117.058 29.6081H126.256Z" fill="#F47421"/>
<path d="M128.258 25.3429C128.512 25.0128 128.765 24.7082 129.069 24.4035C129.196 24.2766 129.322 24.1496 129.449 24.0481H119.313C119.06 24.4797 118.832 24.9113 118.604 25.3429H128.258Z" fill="#F47421"/>
<path d="M137.735 32.02C137.685 32.2231 137.634 32.4008 137.583 32.6039C137.456 33.0355 137.33 33.4671 137.178 33.8733H146.503C146.579 33.5687 146.68 33.264 146.731 32.9594C146.807 32.6293 146.858 32.3246 146.934 32.02H137.735Z" fill="#F47421"/>
<path d="M136.189 35.9044C135.809 36.5391 135.378 37.0976 134.897 37.6308C134.618 37.9355 134.339 38.1893 134.035 38.4178H144.45C144.45 38.3924 144.475 38.3924 144.475 38.3671C144.982 37.5292 145.388 36.7168 145.742 35.9044H136.189Z" fill="#F47421"/>
<path d="M127.067 38.4178C126.966 38.3163 126.864 38.2401 126.788 38.1386C126.231 37.5039 125.851 36.7676 125.648 35.9298H116.652C116.754 36.8184 116.906 37.6562 117.134 38.4432H127.067V38.4178Z" fill="#F47421"/>
<path d="M140.498 16.9394C138.774 16.2539 136.722 15.8984 134.315 15.8984C132.591 15.8984 130.919 16.0762 129.272 16.4316C128.689 16.5585 128.106 16.7363 127.523 16.9647H140.498V16.9394Z" fill="#F47421"/>
<path d="M120.96 43.8255C123.215 45.4758 126.205 46.2882 129.88 46.2882C131.704 46.2882 133.427 46.0597 135.074 45.6281C136.341 45.298 137.684 44.6887 139.053 43.8001H120.96V43.8255Z" fill="#F47421"/>
<path d="M125.471 33.8733C125.496 33.2894 125.572 32.6801 125.673 32.02H116.652C116.576 32.6293 116.551 33.2386 116.551 33.8733H125.471Z" fill="#F47421"/>
<path d="M122.455 20.0875C122.1 20.4175 121.745 20.773 121.416 21.1284H145.388C145.16 20.773 144.932 20.4175 144.678 20.0875H122.455Z" fill="#F47421"/>
<path d="M137 24.0481C137.355 24.4035 137.659 24.8351 137.887 25.3429H147.035C146.959 24.9113 146.832 24.4797 146.705 24.0481H137Z" fill="#F47421"/>
<path d="M148.885 35.9044L148.353 38.4178H157.45L157.956 35.9044H148.885Z" fill="#F47421"/>
<path d="M173.287 39.9157H163.784C164.215 40.9059 164.62 41.8706 164.975 42.81H174.554C174.123 41.7691 173.692 40.8043 173.287 39.9157Z" fill="#F47421"/>
<path d="M169.41 24.7589C169.41 24.962 169.385 25.1398 169.334 25.3429H177.975C178.026 24.9367 178.051 24.5304 178.051 24.1242C178.051 24.0988 178.051 24.0735 178.051 24.0481H169.334C169.385 24.2512 169.41 24.5051 169.41 24.7589Z" fill="#F47421"/>
<path d="M161.909 35.9044C162.264 36.5391 162.669 37.3769 163.126 38.4178H172.552C172.071 37.4531 171.589 36.6153 171.133 35.9044H161.909Z" fill="#F47421"/>
<path d="M149.696 32.02L149.315 33.8733H158.387V33.8479H158.869C159.046 33.8479 159.198 33.8479 159.35 33.8733H169.588C169.435 33.721 169.283 33.5687 169.131 33.4417C170.905 33.1625 172.4 32.7055 173.617 32.02H149.696Z" fill="#F47421"/>
<path d="M156.512 42.8354L157.12 39.9157H148.023L147.415 42.8354H156.512Z" fill="#F47421"/>
<path d="M151.393 24.0481L151.114 25.3429H160.211L160.49 24.0481H151.393Z" fill="#F47421"/>
<path d="M166.749 27.9832C165.837 28.2117 164.038 28.3387 161.301 28.3387H159.578L159.654 27.9832H150.557L150.202 29.6081H176.328C176.708 29.1003 177.012 28.5418 177.265 27.9832H166.749Z" fill="#F47421"/>
<path d="M165.381 43.8255C165.66 44.511 165.913 45.1457 166.141 45.8058H175.745C175.492 45.1203 175.238 44.4602 174.985 43.8255H165.381Z" fill="#F47421"/>
<path d="M147.187 43.8255L146.781 45.8058H155.878L156.309 43.8255H147.187Z" fill="#F47421"/>
<path d="M152.229 20.0875L152.001 21.1284H177.518C177.392 20.773 177.214 20.4176 177.037 20.0875H152.229Z" fill="#F47421"/>
<path d="M173.389 16.9394C172.35 16.5839 171.134 16.4062 169.715 16.4062H153.015L152.889 16.9394H173.389Z" fill="#F47421"/>
</g>
<defs>
<clipPath id="clip0_402_3858">
<rect width="178" height="62" fill="white"/>
</clipPath>
</defs>
</svg>
