<svg width="16" height="16" viewBox="0 0 16 16" fill="none" xmlns="http://www.w3.org/2000/svg">
<g id="material-symbols:mail">
<path id="Vector" d="M2.66634 13.3337C2.29968 13.3337 1.98568 13.203 1.72434 12.9417C1.46301 12.6803 1.33256 12.3665 1.33301 12.0003V4.00033C1.33301 3.63366 1.46368 3.31966 1.72501 3.05833C1.98634 2.79699 2.30012 2.66655 2.66634 2.66699H13.333C13.6997 2.66699 14.0137 2.79766 14.275 3.05899C14.5363 3.32033 14.6668 3.6341 14.6663 4.00033V12.0003C14.6663 12.367 14.5357 12.681 14.2743 12.9423C14.013 13.2037 13.6992 13.3341 13.333 13.3337H2.66634ZM7.99968 8.66699L13.333 5.33366V4.00033L7.99968 7.33366L2.66634 4.00033V5.33366L7.99968 8.66699Z" fill="#E4E4E4"/>
</g>
</svg>
