<svg width="48" height="49" viewBox="0 0 48 49" fill="none" xmlns="http://www.w3.org/2000/svg">
<g id="material-symbols:mail">
<path id="Vector" d="M8 40.2869C6.9 40.2869 5.958 39.8932 5.174 39.1059C4.39 38.3186 3.99867 37.3733 4 36.27V12.1687C4 11.0641 4.392 10.1181 5.176 9.33081C5.96 8.5435 6.90134 8.15052 8 8.15186H40C41.1 8.15186 42.042 8.54551 42.826 9.33282C43.61 10.1201 44.0013 11.0654 44 12.1687V36.27C44 37.3746 43.608 38.3206 42.824 39.1079C42.04 39.8952 41.0987 40.2882 40 40.2869H8ZM24 26.2278L40 16.1856V12.1687L24 22.2109L8 12.1687V16.1856L24 26.2278Z" fill="#FFFDFD"/>
</g>
</svg>
