<svg width="29" height="29" viewBox="0 0 29 29" fill="none" xmlns="http://www.w3.org/2000/svg">
<g id="ph:arrow-down">
<path id="Vector" d="M17.2995 23.0358L25.154 15.1813C25.2352 15.1002 25.2996 15.004 25.3435 14.898C25.3874 14.7921 25.41 14.6785 25.41 14.5638C25.41 14.4491 25.3874 14.3356 25.3435 14.2296C25.2996 14.1237 25.2352 14.0274 25.154 13.9464L17.2995 6.09182C17.1357 5.92806 16.9136 5.83606 16.682 5.83606C16.4505 5.83606 16.2284 5.92806 16.0646 6.09182C15.9008 6.25558 15.8088 6.47768 15.8088 6.70927C15.8088 6.94086 15.9008 7.16297 16.0646 7.32673L22.43 13.6911L5.33659 13.6911C5.10513 13.6911 4.88315 13.783 4.71948 13.9467C4.55582 14.1104 4.46387 14.3324 4.46387 14.5638C4.46387 14.7953 4.55582 15.0173 4.71948 15.1809C4.88315 15.3446 5.10513 15.4365 5.33659 15.4365L22.43 15.4365L16.0646 21.8009C15.9008 21.9647 15.8088 22.1868 15.8088 22.4184C15.8088 22.65 15.9008 22.8721 16.0646 23.0358C16.2284 23.1996 16.4505 23.2916 16.682 23.2916C16.9136 23.2916 17.1357 23.1996 17.2995 23.0358Z" fill="#F3742B"/>
</g>
</svg>
