<svg width="32" height="32" viewBox="0 0 32 32" fill="none" xmlns="http://www.w3.org/2000/svg">
<g id="ic:round-phone">
<path id="Vector" d="M25.6401 20.3467L22.2534 19.96C21.8552 19.9132 21.4515 19.9573 21.0728 20.089C20.6941 20.2206 20.3501 20.4363 20.0667 20.72L17.6134 23.1733C13.8283 21.2483 10.7518 18.1718 8.82672 14.3867L11.2934 11.92C11.8667 11.3467 12.1467 10.5467 12.0534 9.73334L11.6667 6.37334C11.5911 5.72291 11.279 5.12299 10.7897 4.6878C10.3004 4.25262 9.6682 4.01256 9.01339 4.01334H6.70672C5.20005 4.01334 3.94672 5.26667 4.04005 6.77334C4.74672 18.16 13.8534 27.2533 25.2267 27.96C26.7334 28.0533 27.9867 26.8 27.9867 25.2933V22.9867C28.0001 21.64 26.9867 20.5067 25.6401 20.3467Z" fill="#F47521"/>
</g>
</svg>
