<svg width="29" height="29" viewBox="0 0 29 29" fill="none" xmlns="http://www.w3.org/2000/svg">
<g id="ph:arrow-down">
<path id="Vector" d="M12.5735 6.09175L4.719 13.9463C4.63785 14.0273 4.57348 14.1236 4.52956 14.2295C4.48564 14.3355 4.46304 14.4491 4.46304 14.5637C4.46304 14.6784 4.48564 14.792 4.52956 14.8979C4.57348 15.0039 4.63785 15.1001 4.719 15.1812L12.5735 23.0357C12.7373 23.1995 12.9594 23.2915 13.191 23.2915C13.4226 23.2915 13.6447 23.1995 13.8085 23.0357C13.9722 22.872 14.0642 22.6499 14.0642 22.4183C14.0642 22.1867 13.9722 21.9646 13.8085 21.8008L7.443 15.4365L24.5365 15.4365C24.7679 15.4365 24.9899 15.3445 25.1536 15.1809C25.3172 15.0172 25.4092 14.7952 25.4092 14.5637C25.4092 14.3323 25.3172 14.1103 25.1536 13.9466C24.9899 13.783 24.7679 13.691 24.5365 13.691L7.443 13.691L13.8085 7.32666C13.9722 7.1629 14.0642 6.94079 14.0642 6.7092C14.0642 6.47761 13.9722 6.2555 13.8085 6.09175C13.6447 5.92799 13.4226 5.83599 13.191 5.83599C12.9594 5.83599 12.7373 5.92799 12.5735 6.09175Z" fill="#F3742B"/>
</g>
</svg>
