<svg width="36" height="36" viewBox="0 0 36 36" fill="none" xmlns="http://www.w3.org/2000/svg">
<g id="ri:tools-fill">
<path id="Vector" d="M7.99293 4.90792C8.92876 4.57456 9.93997 4.51357 10.9091 4.73202C11.8782 4.95048 12.7655 5.43941 13.4678 6.14204C14.1701 6.84466 14.6586 7.73212 14.8766 8.70134C15.0946 9.67055 15.0332 10.6817 14.6994 11.6174L30.9684 27.8849L27.7869 31.0679L11.5179 14.8004C10.5819 15.1344 9.57022 15.1957 8.60064 14.9774C7.63107 14.7591 6.74337 14.27 6.04077 13.5671C5.33816 12.8642 4.84951 11.9763 4.63163 11.0066C4.41374 10.0369 4.47557 9.02534 4.80993 8.08942L8.16393 11.4449C8.37283 11.6539 8.62085 11.8197 8.89383 11.9329C9.16681 12.046 9.4594 12.1043 9.7549 12.1044C10.0504 12.1044 10.343 12.0463 10.616 11.9333C10.8891 11.8203 11.1372 11.6546 11.3462 11.4457C11.5552 11.2368 11.721 10.9887 11.8341 10.7158C11.9473 10.4428 12.0056 10.1502 12.0056 9.8547C12.0057 9.5592 11.9476 9.26658 11.8345 8.99355C11.7215 8.72051 11.5558 8.47242 11.3469 8.26342L7.99293 4.90792ZM23.5434 7.73242L28.3164 5.08042L30.4389 7.20292L27.7869 11.9759L25.1349 12.5054L21.9534 15.6869L19.8309 13.5659L23.0139 10.3844L23.5434 7.73242ZM12.9384 19.3994L16.1184 22.5824L8.69343 30.0074C8.28473 30.4165 7.73422 30.6525 7.15613 30.6665C6.57804 30.6805 6.01675 30.4714 5.58874 30.0825C5.16073 29.6937 4.89886 29.155 4.85747 28.5782C4.81607 28.0015 4.99833 27.4309 5.36643 26.9849L5.51193 26.8244L12.9369 19.3994H12.9384Z" fill="#FFFDFD"/>
</g>
</svg>
