<svg width="36" height="36" viewBox="0 0 36 36" fill="none" xmlns="http://www.w3.org/2000/svg">
<g id="ri:tools-fill">
<path id="Vector" d="M7.99293 4.90804C8.92876 4.57468 9.93997 4.51369 10.9091 4.73214C11.8782 4.9506 12.7655 5.43954 13.4678 6.14216C14.1701 6.84478 14.6586 7.73224 14.8766 8.70146C15.0946 9.67067 15.0332 10.6819 14.6994 11.6175L30.9684 27.885L27.7869 31.068L11.5179 14.8005C10.5819 15.1345 9.57022 15.1959 8.60064 14.9775C7.63107 14.7592 6.74337 14.2702 6.04077 13.5673C5.33816 12.8643 4.84951 11.9764 4.63163 11.0067C4.41374 10.0371 4.47557 9.02546 4.80993 8.08954L8.16393 11.445C8.37283 11.654 8.62085 11.8198 8.89383 11.933C9.16681 12.0461 9.4594 12.1044 9.7549 12.1045C10.0504 12.1045 10.343 12.0464 10.616 11.9334C10.8891 11.8204 11.1372 11.6547 11.3462 11.4458C11.5552 11.2369 11.721 10.9889 11.8341 10.7159C11.9473 10.4429 12.0056 10.1503 12.0056 9.85482C12.0057 9.55932 11.9476 9.2667 11.8345 8.99367C11.7215 8.72064 11.5558 8.47254 11.3469 8.26354L7.99293 4.90804ZM23.5434 7.73254L28.3164 5.08054L30.4389 7.20304L27.7869 11.976L25.1349 12.5055L21.9534 15.687L19.8309 13.566L23.0139 10.3845L23.5434 7.73254ZM12.9384 19.3995L16.1184 22.5825L8.69343 30.0075C8.28473 30.4166 7.73422 30.6526 7.15613 30.6666C6.57804 30.6806 6.01675 30.4715 5.58874 30.0827C5.16073 29.6938 4.89886 29.1551 4.85747 28.5784C4.81607 28.0016 4.99833 27.431 5.36643 26.985L5.51193 26.8245L12.9369 19.3995H12.9384Z" fill="#F3742B"/>
</g>
</svg>
