<svg width="32" height="32" viewBox="0 0 32 32" fill="none" xmlns="http://www.w3.org/2000/svg">
<g id="ion:wallet-sharp">
<path id="Vector" d="M2.96875 6.50004H27V3.22004C27 3.07207 26.9672 2.92594 26.9039 2.7922C26.8406 2.65845 26.7484 2.54042 26.634 2.44661C26.5195 2.3528 26.3857 2.28556 26.2421 2.24973C26.0986 2.2139 25.9488 2.21038 25.8037 2.23942L2.80375 6.01942C2.63248 6.05351 2.47313 6.13186 2.34155 6.24666C2.20997 6.36147 2.11074 6.50873 2.05375 6.67379C2.34504 6.55863 2.65552 6.49967 2.96875 6.50004ZM28.9688 8.00004H2.96875C2.70353 8.00004 2.44918 8.1054 2.26164 8.29294C2.07411 8.48047 1.96875 8.73483 1.96875 9.00004V27C1.96875 27.2653 2.07411 27.5196 2.26164 27.7072C2.44918 27.8947 2.70353 28 2.96875 28H28.9688C29.234 28 29.4883 27.8947 29.6759 27.7072C29.8634 27.5196 29.9688 27.2653 29.9688 27V9.00004C29.9688 8.73483 29.8634 8.48047 29.6759 8.29294C29.4883 8.1054 29.234 8.00004 28.9688 8.00004ZM23 20C22.6044 20 22.2178 19.8827 21.8889 19.663C21.56 19.4432 21.3036 19.1309 21.1522 18.7654C21.0009 18.4 20.9613 17.9978 21.0384 17.6099C21.1156 17.2219 21.3061 16.8655 21.5858 16.5858C21.8655 16.3061 22.2219 16.1156 22.6098 16.0385C22.9978 15.9613 23.3999 16.0009 23.7654 16.1523C24.1308 16.3037 24.4432 16.56 24.6629 16.8889C24.8827 17.2178 25 17.6045 25 18C25 18.5305 24.7893 19.0392 24.4142 19.4143C24.0391 19.7893 23.5304 20 23 20Z" fill="#FFFDFD"/>
<path id="Vector_2" d="M1.95898 16.2188V7.25C1.95898 6.47938 2.31648 6.095 2.92273 6C5.12273 5.65437 9.70898 5.46875 9.70898 5.46875C9.70898 5.46875 9.18836 6.46875 8.00086 6.46875V8C9.15711 8 9.95898 9.46875 9.95898 9.46875L5.30273 14.75L1.95898 16.2188Z" fill="#FFFDFD"/>
</g>
</svg>
